<svg width="340" height="378" viewBox="0 0 340 378" fill="none" xmlns="http://www.w3.org/2000/svg">
<g filter="url(#filter0_dd_3_14308)">
<path d="M150.868 225.835C150.868 225.835 157.077 149.158 141.997 147.564C132.886 146.601 113.372 214.467 111.44 221.668C109.455 228.864 150.868 225.835 150.868 225.835Z" fill="#FCD375"/>
<path d="M150.87 226.312C151.085 226.282 151.259 226.141 151.286 225.88C151.516 222.73 157.389 148.715 141.995 147.088C137.858 146.651 131.845 157.864 123.517 181.368C117.289 199.065 111.904 217.803 110.927 221.508C110.744 222.229 110.881 222.932 111.349 223.51C112.566 225.014 116.233 225.878 120.789 226.359C132.355 227.634 149.858 226.364 150.87 226.312ZM112.149 222.96C111.869 222.613 111.75 222.23 111.905 221.77C117.261 201.813 134.413 147.186 142.005 147.988C155.933 149.46 150.96 219.498 150.493 225.373C140.512 226.116 115.43 226.956 112.149 222.96Z" fill="#FCD375"/>
<path d="M154.457 229.495L162.766 177.848L147.834 166.907C144.317 177.061 135.705 213.655 125.812 222.025C115.976 230.348 154.457 229.495 154.457 229.495Z" fill="#E8AE37"/>
<path d="M136.046 229.348C143.848 230.173 152.814 230.01 154.459 229.972C154.674 229.942 154.848 229.801 154.923 229.598L163.232 177.95C163.249 177.793 163.213 177.63 163.067 177.509L148.135 166.568C148.036 166.505 147.884 166.436 147.716 166.524C147.554 166.559 147.49 166.659 147.421 166.81C146.658 169.004 145.645 172.547 144.414 176.648C140.224 191.122 133.148 215.289 125.525 221.73C124.014 222.998 123.461 224.209 123.873 225.311C124.755 227.467 130.076 228.717 136.046 229.348ZM126.145 222.377C134 215.749 140.782 192.345 145.293 176.847C146.38 173.1 147.307 169.866 148.07 167.672L162.262 178.111L154.077 229.085C146.065 229.243 126.204 228.784 124.761 224.929C124.519 224.215 124.981 223.365 126.145 222.377Z" fill="#E8AE37"/>
<path d="M138.988 223.804C137.382 242.361 166.844 290.916 166.844 290.916L251.753 263.441L279.645 148.791C279.645 148.791 237.256 122.146 214.14 123.882C191.076 125.623 188.628 128.221 188.628 128.221C188.628 128.221 138.822 136.394 139.061 149.063C139.305 161.679 149.519 175.666 149.519 175.666C149.519 175.666 140.543 205.241 138.988 223.804Z" fill="#4461AB"/>
<path d="M138.517 223.754C137.844 231.565 142.368 245.268 151.914 264.528C159.024 278.822 166.408 291.029 166.45 291.139C166.543 291.254 166.642 291.318 166.799 291.334C166.852 291.34 166.904 291.345 166.962 291.299L251.871 263.824C252.034 263.788 252.155 263.642 252.172 263.485L280.064 148.835C280.086 148.626 280.05 148.463 279.852 148.336C279.753 148.273 269.079 141.59 255.724 135.206C237.731 126.639 223.754 122.623 214.091 123.347C193.428 124.919 189.221 127.12 188.416 127.722C185.074 128.269 138.356 136.292 138.59 149.013C138.813 160.833 147.79 174.002 149.042 175.668C148.264 178.496 140.018 206.191 138.517 223.754ZM150.032 175.826C150.101 175.675 150.06 175.564 149.966 175.449C149.872 175.333 139.805 161.467 139.585 149.118C139.337 137.03 188.246 128.816 188.781 128.766C188.886 128.777 188.95 128.678 189.007 128.631C189.123 128.538 192.032 126.094 214.189 124.416C216.165 124.254 218.225 124.313 220.424 124.546C242.681 126.898 275.763 146.952 279.14 149.055L251.414 263.141L167.057 290.409C164.537 286.228 137.97 241.312 139.46 223.853C140.986 205.552 149.946 176.134 150.032 175.826Z" fill="#4461AB"/>
<path d="M253.848 267.207C267.052 255.113 255.963 161.368 255.963 161.368C247.484 168.883 240.199 180.597 237.186 206.887C234.178 233.124 224.544 245.013 217.643 249.151C210.741 253.288 181.767 260.806 174.477 257.655C167.182 254.556 172.231 278.735 172.231 278.735C172.231 278.735 240.644 279.301 253.848 267.207Z" fill="#244698"/>
<path d="M172.181 279.206C172.233 279.212 172.233 279.212 172.181 279.206C172.391 279.228 189.536 279.348 208.111 277.978C233.092 276.122 248.558 272.625 254.129 267.554C259.706 262.43 261.779 242.971 260.288 209.751C259.156 185.087 256.418 161.575 256.393 161.308C256.358 161.145 256.27 160.977 256.113 160.961C255.961 160.892 255.798 160.927 255.625 161.068C248.547 167.355 239.967 178.298 236.714 206.837C233.378 236.161 222.065 245.915 217.368 248.751C210.577 252.847 181.718 260.271 174.627 257.247C173.514 256.759 172.554 256.816 171.801 257.425C168.087 260.47 171.362 276.951 171.743 278.843C171.826 279.063 172.024 279.19 172.181 279.206ZM172.415 258.124C172.705 257.89 173.088 257.772 173.507 257.817C173.769 257.844 174.025 257.924 174.328 258.062C181.775 261.229 210.796 253.77 217.871 249.492C222.679 246.615 234.282 236.626 237.663 206.884C240.793 179.496 248.791 168.545 255.601 162.282C256.704 171.815 265.77 255.718 253.515 266.854C241.076 278.235 177.998 278.287 172.596 278.298C171.56 273.11 169.686 260.375 172.415 258.124Z" fill="#244698"/>
<path d="M170.743 303.732L184.483 318.472L255.316 307.965L170.743 303.732Z" fill="#191446"/>
<path d="M184.438 318.891C184.49 318.896 184.49 318.896 184.543 318.902L255.318 308.441C255.533 308.411 255.713 308.218 255.688 307.951C255.658 307.736 255.465 307.557 255.256 307.535L170.688 303.25C170.478 303.228 170.31 303.316 170.235 303.52C170.166 303.671 170.196 303.886 170.29 304.002L184.03 318.742C184.228 318.868 184.333 318.88 184.438 318.891ZM250.68 308.215L184.637 318.012L171.798 304.267L250.68 308.215Z" fill="#191446"/>
<path d="M184.485 318.47L179.518 324.825L254.53 315.343L255.316 307.964L184.485 318.47Z" fill="#C0C3D6"/>
<path d="M179.578 325.255L254.538 315.767C254.753 315.737 254.927 315.597 254.949 315.387L255.735 308.008C255.752 307.851 255.711 307.741 255.617 307.625C255.523 307.51 255.366 307.493 255.262 307.482L184.489 317.941C184.378 317.982 184.268 318.024 184.205 318.123L179.237 324.478C179.115 324.624 179.093 324.833 179.181 325.001C179.275 325.117 179.368 325.232 179.525 325.249L179.578 325.255ZM184.761 318.87L254.783 308.49L254.098 314.927L180.591 324.197L184.761 318.87Z" fill="#C0C3D6"/>
<path d="M207.552 309.163C216.639 300.919 193.334 259.204 184.598 264.153C184.598 264.153 181.196 261.783 180.64 273.468C179.978 285.142 198.465 317.407 207.552 309.163Z" fill="#283A84"/>
<path d="M200.985 310.162C201.894 310.575 202.762 310.878 203.6 310.967C205.171 311.133 206.599 310.649 207.827 309.562C213.978 304.023 206.106 284.465 197.748 272.948C192.439 265.616 187.66 262.255 184.538 263.723C184.182 263.58 183.612 263.467 183.049 263.778C181.372 264.605 180.387 267.887 180.105 273.517C179.609 283.145 191.408 305.605 200.985 310.162ZM183.448 264.507C183.669 264.425 183.831 264.389 183.988 264.406C184.198 264.428 184.297 264.491 184.349 264.497C184.495 264.618 184.658 264.582 184.826 264.494C187.419 263.023 191.994 266.31 197.069 273.353C206.066 285.836 212.495 304.025 207.277 308.763C205.696 310.183 203.719 310.345 201.399 309.253C192.278 304.904 180.613 282.67 181.064 273.46C181.375 266.563 182.717 264.906 183.448 264.507Z" fill="#283A84"/>
<path d="M199.295 307.07C201.122 287.952 188.634 271.979 185.383 268.197C175.461 269.371 165.832 274.756 165.832 274.756C165.832 274.756 164.554 308.586 179.059 310.118C186.123 310.917 193.57 309.111 199.295 307.07Z" fill="#F9C09D"/>
<path d="M199.46 307.511C199.623 307.475 199.75 307.277 199.767 307.12C201.594 288.002 189.502 272.282 185.731 267.916C185.637 267.8 185.486 267.731 185.323 267.767C175.401 268.941 165.719 274.321 165.609 274.362C165.493 274.455 165.372 274.601 165.355 274.758C165.309 276.182 164.242 309.03 179.009 310.589C184.973 311.272 191.866 310.201 199.46 307.511ZM166.275 275.067C167.737 274.269 176.365 269.837 185.17 268.703C189.029 273.237 200.438 288.409 198.852 306.759C191.484 309.314 184.859 310.36 179.099 309.752C165.856 308.301 166.208 278.181 166.275 275.067Z" fill="#F9C09D"/>
<path d="M209.527 302.548C209.527 302.548 207.442 272.437 195.226 268.82C192.145 267.912 188.766 267.82 185.384 268.256C188.634 272.038 201.127 287.959 199.295 307.128C205.298 304.958 209.527 302.548 209.527 302.548Z" fill="#E68262"/>
<path d="M198.829 307.026C198.813 307.183 198.9 307.351 199 307.414C199.046 307.472 199.151 307.483 199.256 307.494C199.308 307.5 199.413 307.511 199.471 307.464C205.468 305.346 209.697 302.936 209.755 302.889C209.923 302.801 209.992 302.65 209.956 302.487C209.875 301.262 207.749 272.046 195.328 268.354C192.452 267.521 189.084 267.325 185.277 267.769C185.114 267.805 184.946 267.893 184.929 268.05C184.86 268.201 184.896 268.364 184.984 268.532C188.707 272.84 200.617 288.275 198.829 307.026ZM195.076 269.227C206.21 272.572 208.773 299.188 209.025 302.283C208.068 302.817 204.535 304.666 199.798 306.388C201.182 288.441 190.479 273.609 186.251 268.56C189.617 268.28 192.561 268.485 195.076 269.227Z" fill="#E68262"/>
<path d="M196.747 258.059C196.747 258.059 223.16 281.534 221.02 309.079C221.02 309.079 291.363 313.393 303.719 285.393C316.076 257.393 295.341 140.359 275.276 148.765C263.69 153.624 246.596 164.46 242.28 187.068C237.913 209.67 243.482 241.892 243.482 241.892C243.482 241.892 193.086 248.679 196.747 258.059Z" fill="#FCD375"/>
<path d="M196.612 255.347C196.035 256.291 195.987 257.238 196.358 258.229C196.405 258.287 196.452 258.345 196.498 258.403C196.545 258.461 203.173 264.345 209.398 273.52C215.119 281.953 221.728 294.977 220.653 309.04C220.642 309.145 220.677 309.308 220.776 309.371C220.87 309.487 220.975 309.498 221.08 309.509C221.237 309.525 238.921 310.548 257.869 308.16C283.42 304.936 299.006 297.326 304.232 285.553C309.181 274.385 309.199 246.88 304.326 215.578C299.453 184.276 291.193 158.911 283.264 150.826C280.541 148.052 277.775 147.177 275.168 148.277C262.364 153.642 246.143 164.729 241.873 186.919C237.84 207.863 242.321 237.378 243.003 241.418C238.104 242.17 201.199 247.579 196.612 255.347ZM243.537 242.373C243.647 242.332 243.757 242.291 243.821 242.192C243.884 242.093 243.896 241.988 243.912 241.831C243.841 241.506 238.417 209.406 242.694 187.164C246.92 165.393 262.804 154.482 275.44 149.205C277.715 148.229 280.116 149.065 282.552 151.544C299.567 168.789 313.918 261.238 303.311 285.244C291.726 311.474 227.596 308.981 221.541 308.658C222.47 294.474 215.855 281.502 210.087 273.011C204.179 264.346 197.965 258.558 197.141 257.836C196.894 257.175 197.013 256.553 197.405 255.854C201.998 248.034 243.112 242.381 243.537 242.373Z" fill="#FCD375"/>
<path d="M184.166 159.453C200.119 160.346 223.858 124.446 223.858 124.446C226.603 120.557 195.58 118.442 187.705 126.233C179.831 134.025 168.213 158.561 184.166 159.453Z" fill="#191446"/>
<path d="M183.382 159.847C183.644 159.874 183.854 159.897 184.115 159.924C190.853 160.319 199.684 154.48 210.326 142.591C218.138 133.893 224.07 124.945 224.255 124.7C224.688 124.111 224.551 123.408 223.92 122.866C220.323 119.84 194.824 118.574 187.372 125.881C184.292 128.941 180.809 134.287 178.548 139.603C175.809 145.926 175.066 151.403 176.386 154.928C177.452 157.845 179.821 159.47 183.382 159.847ZM187.986 126.58C193.018 121.61 207.131 120.88 215.982 121.815C219.596 122.197 222.385 122.862 223.308 123.647C223.699 123.953 223.577 124.099 223.508 124.251C223.26 124.595 199.686 159.93 184.21 159.035C180.574 158.862 178.299 157.352 177.257 154.703C174.489 147.374 181.889 132.602 187.986 126.58Z" fill="#191446"/>
<path d="M111.765 51.735C109.434 59.6915 126.83 64.4394 126.83 64.4394C121.88 69.632 121.83 72.5902 123.774 74.2244C127.41 72.9149 131.948 68.1021 133.473 65.723C133.617 65.3677 133.761 65.0125 133.957 64.6628C133.934 64.8721 133.733 65.2741 133.473 65.723C131.587 70.4983 136.976 71.1204 136.976 71.1204C136.976 71.1204 138.365 73.4898 139.663 76.22C152.872 78.5146 219.31 89.765 223.69 85.941C228.539 81.6903 235.855 51.8219 232.058 48.1927C228.261 44.5635 225.259 52.3434 225.259 52.3434C225.259 52.3434 222.264 22.8149 212.582 19.7285C202.901 16.6421 201.765 25.307 201.765 25.307C201.765 25.307 171.491 9.19714 161.148 12.8147C150.805 16.4322 156.077 24.6096 156.077 24.6096C156.077 24.6096 133.547 24.2941 123.131 31.0792C112.709 37.9166 126.693 44.3679 126.693 44.3679C126.693 44.3679 114.097 43.7786 111.765 51.735Z" fill="#504566"/>
<path d="M111.358 51.5862C110.934 53.0761 111.092 54.5745 111.942 56.0402C114.657 60.8781 123.448 63.8704 126.063 64.6759C123.361 67.6715 122.103 70.026 122.211 71.9954C122.262 73.0063 122.697 73.8989 123.52 74.6209C123.666 74.7422 123.823 74.7588 123.986 74.7231C127.017 73.6144 130.608 70.2363 132.679 67.7031C132.665 68.3366 132.865 68.9399 133.181 69.4496C134.125 71.031 136.088 71.5029 136.763 71.6271C137.121 72.247 138.281 74.2748 139.368 76.5064C139.409 76.6166 139.555 76.7378 139.712 76.7544C147.146 78.0687 166.502 81.33 185.028 83.9217C192.699 84.9965 198.816 85.7483 203.74 86.2683C222.019 88.1988 223.485 86.8717 224.064 86.4037C228.154 82.8138 233.417 63.2599 233.595 53.6471C233.645 50.6889 233.259 48.8488 232.394 48.0166C231.43 47.121 230.463 46.7543 229.429 47.0155C227.692 47.4141 226.311 49.438 225.52 50.8892C224.759 44.6171 221.319 22.2389 212.715 19.478C209.488 18.4492 206.824 18.5913 204.782 19.8574C202.567 21.264 201.728 23.6627 201.449 24.7974C197.181 22.6003 170.805 9.17768 161.019 12.5366C157.61 13.7112 155.46 15.4951 154.674 17.8994C153.761 20.5019 154.755 23.0942 155.313 24.3174C151.184 24.3046 132.286 24.6902 122.886 30.8946C120.038 32.7636 118.657 34.7875 118.847 36.9773C119.083 40.2304 122.672 42.8321 124.865 44.1221C121.154 44.1535 113.202 45.2188 111.358 51.5862ZM126.579 44.9381C126.788 44.9602 127.015 44.8254 127.037 44.6161C127.112 44.4123 126.977 44.1863 126.773 44.1118C126.721 44.1063 119.912 40.9 119.655 36.8509C119.531 35.0385 120.727 33.2597 123.285 31.6247C133.474 24.9745 155.748 25.21 156.01 25.2377C156.167 25.2543 156.335 25.1662 156.404 25.0147C156.473 24.8633 156.49 24.7063 156.402 24.5382C156.408 24.4859 154.363 21.3064 155.437 18.1916C156.137 16.0958 158.108 14.5047 161.244 13.407C171.308 9.91882 201.191 25.7228 201.494 25.8606C201.646 25.9295 201.803 25.9461 201.919 25.8525C202.034 25.7589 202.15 25.6653 202.167 25.5083C202.173 25.456 202.676 22.2281 205.234 20.5931C207.049 19.4618 209.445 19.3444 212.416 20.2932C221.69 23.2307 224.747 52.1834 224.765 52.5029C224.796 52.7178 224.936 52.8914 225.145 52.9136C225.355 52.9357 225.581 52.8008 225.65 52.6494C226.093 51.4789 227.707 48.2625 229.602 47.8804C230.305 47.743 231.021 47.9774 231.74 48.6884C232.126 49.0466 232.747 50.1707 232.641 53.6522C232.413 63.736 226.955 82.6343 223.392 85.7507C220.119 88.6332 176.464 82.2764 140.005 75.9915C138.749 73.3715 137.406 71.06 137.354 71.0545C137.26 70.9387 137.161 70.8753 137.004 70.8587C137.004 70.8587 134.705 70.563 133.855 69.0973C133.409 68.3094 133.41 67.3041 133.8 66.1281C134.124 65.5801 134.326 65.1781 134.359 64.8641C134.381 64.6548 134.247 64.4288 134.043 64.3543C133.839 64.2799 133.618 64.3624 133.491 64.5607C133.295 64.9104 133.093 65.3125 133.007 65.621C131.667 67.755 127.361 72.3806 123.819 73.8058C123.293 73.274 123.034 72.7174 123.002 72.026C122.924 70.2714 124.298 67.8234 127.158 64.8444C127.274 64.7508 127.296 64.5415 127.255 64.4313C127.219 64.2687 127.073 64.1475 126.916 64.1309C126.811 64.1198 115.547 60.9722 112.662 55.7458C111.947 54.506 111.819 53.2224 112.162 51.9886C114.408 44.3406 126.474 44.9271 126.579 44.9381Z" fill="#504566"/>
<path d="M133.951 64.6895C133.75 65.0913 133.554 65.4408 133.468 65.7491C133.78 65.3061 133.923 64.951 133.951 64.6895Z" fill="#191446"/>
<path d="M133.418 66.2202C133.575 66.2368 133.743 66.1488 133.864 66.0029C134.187 65.4552 134.389 65.0533 134.423 64.7394C134.445 64.5301 134.31 64.3043 134.106 64.2299C133.902 64.1554 133.682 64.2379 133.555 64.4361C133.359 64.7857 133.157 65.1876 133.013 65.5427C132.939 65.7464 133.015 66.0191 133.219 66.0935C133.313 66.2092 133.365 66.2147 133.418 66.2202Z" fill="#191446"/>
<path d="M123.771 74.2468C127.269 77.2091 137.419 75.8996 137.419 75.8996C137.419 75.8996 138.251 76.0405 139.706 76.3C138.409 73.57 137.019 71.2009 137.019 71.2009C137.019 71.2009 131.636 70.5265 133.516 65.8039C131.945 68.125 127.412 72.885 123.771 74.2468Z" fill="#191446"/>
<path d="M133.672 65.344C133.473 65.2172 133.2 65.2943 133.073 65.4926C131.675 67.6733 127.19 72.4911 123.607 73.806C123.444 73.8418 123.322 73.9876 123.306 74.1446C123.289 74.3016 123.325 74.4642 123.471 74.5854C124.779 75.7289 126.945 76.2752 129.197 76.513C132.863 76.9002 136.776 76.4668 137.369 76.3706L139.604 76.7655C139.761 76.7821 139.924 76.7462 140.045 76.6003C140.167 76.4544 140.183 76.2975 140.095 76.1294C138.798 73.3995 137.356 71.0248 137.362 70.9725C137.268 70.8568 137.169 70.7933 137.012 70.7767C137.012 70.7767 134.713 70.4811 133.863 69.0155C133.417 68.2276 133.418 67.2222 133.867 65.9996C133.952 65.6911 133.87 65.4708 133.672 65.344ZM136.713 71.5918C137.029 72.1014 137.962 73.7874 138.924 75.6882L137.521 75.4342C137.469 75.4287 137.417 75.4232 137.364 75.4177C137.26 75.4066 128.505 76.5457 124.72 74.294C127.616 72.9594 130.749 69.9037 132.635 67.6158C132.62 68.2492 132.821 68.8525 133.137 69.3621C134.023 70.9902 136.038 71.4675 136.713 71.5918Z" fill="#191446"/>
<path d="M224.81 81.5345C221.836 70.6915 208.612 71.0411 206.175 77.5032C203.738 83.9654 201.689 80.8389 201.689 80.8389C199.645 72.6868 189.252 59.8965 189.252 59.8965C163.075 71.4707 164.43 57.2753 164.43 57.2753C152.324 75.9438 136.116 71.0048 136.116 71.0048C136.116 71.0048 145.873 111.611 159.497 123.896C173.121 136.181 183.848 126.468 183.848 126.468C183.848 126.468 184.03 126.751 184.305 127.151C186.303 125.298 190.722 121.109 192.13 118.824C193.746 116.084 190.443 127.693 186.599 132.948C186.956 134.573 186.986 136.27 186.441 137.905C184.731 143.016 182.356 148.902 191.451 146.053C200.546 143.204 215.533 126.321 212.025 120.977C208.464 115.628 209.205 100.733 209.205 100.733C219.423 101.759 227.732 92.372 224.81 81.5345Z" fill="#F9C09D"/>
<path d="M222.212 95.9687C225.596 92.0405 226.695 86.7068 225.251 81.3693C223.536 75.1037 218.611 72.6259 214.603 72.4672C210.49 72.2975 206.951 74.1988 205.773 77.3019C204.583 80.5096 203.574 81.038 203.091 81.0929C202.609 81.1477 202.281 80.7428 202.141 80.5692C200.045 72.4115 190.085 60.0371 189.664 59.5165C189.523 59.3429 189.314 59.3208 189.146 59.4088C175.86 65.3074 169.975 64.3687 167.367 62.506C164.712 60.5854 164.959 57.2781 164.959 57.2781C164.981 57.0689 164.841 56.8953 164.637 56.8208C164.433 56.7464 164.213 56.829 164.091 56.9749C157.946 66.4316 150.719 69.6367 145.745 70.5929C140.335 71.6619 136.329 70.498 136.329 70.498C136.177 70.4291 136.009 70.5172 135.893 70.6108C135.777 70.7044 135.703 70.9082 135.738 71.0707C136.141 72.7534 145.676 111.961 159.254 124.188C171.523 135.272 181.648 128.722 183.834 127.101C183.88 127.159 183.921 127.269 183.963 127.379C184.056 127.495 184.155 127.558 184.307 127.627C184.412 127.638 184.574 127.602 184.69 127.509C186.741 125.662 190.105 122.419 191.886 120.121C191.097 123.053 188.845 129.27 186.36 132.711C186.296 132.811 186.279 132.967 186.268 133.072C186.66 134.859 186.598 136.44 186.138 137.767L185.909 138.431C184.83 141.597 183.739 144.868 185.27 146.406C185.697 146.874 186.308 147.097 187.146 147.186C188.298 147.307 189.809 147.044 191.778 146.458C198.846 144.241 209.975 133.247 212.617 125.855C213.38 123.66 213.407 121.917 212.582 120.719C209.531 116.058 209.725 103.804 209.789 101.218C214.472 101.501 219.122 99.6107 222.212 95.9687ZM209.314 100.215C209.209 100.204 209.046 100.24 208.983 100.339C208.867 100.433 208.856 100.537 208.844 100.642C208.83 101.275 208.191 115.705 211.741 121.159C212.379 122.126 212.327 123.602 211.65 125.488C209.077 132.729 198.302 143.39 191.396 145.571C188.492 146.481 186.632 146.549 185.872 145.728C184.727 144.549 185.8 141.435 186.73 138.676L186.959 138.013C187.435 136.529 187.504 134.896 187.175 133.009C190.354 128.53 193.47 119.177 192.988 118.226C192.9 118.058 192.754 117.937 192.545 117.915C192.178 117.876 191.982 118.226 191.792 118.523C190.504 120.663 186.497 124.472 184.493 126.377C184.405 126.209 184.358 126.151 184.358 126.151C184.265 126.035 184.113 125.966 184.009 125.955C183.904 125.944 183.741 125.98 183.678 126.079C183.266 126.459 173.105 135.333 159.908 123.516C147.539 112.369 138.22 77.0997 136.846 71.6108C138.295 71.9226 141.63 72.4335 145.907 71.5624C150.881 70.6062 157.933 67.5414 164.122 58.6713C164.302 59.9601 164.939 61.9321 166.807 63.2933C170.792 66.1479 178.307 65.1955 189.139 60.4663C190.63 62.3698 199.434 73.6697 201.253 80.9516C201.247 81.0039 201.294 81.0617 201.294 81.0617C201.341 81.1196 202.026 82.1443 203.148 82.0511C204.38 81.9167 205.537 80.5045 206.583 77.652C207.617 74.9041 210.814 73.2312 214.502 73.409C218.243 73.5924 222.766 75.8689 224.322 81.6415C225.694 86.654 224.629 91.6738 221.476 95.4149C218.451 98.9578 214.027 100.713 209.314 100.215Z" fill="#F9C09D"/>
<path d="M192.2 118.774C190.844 121.064 186.369 125.3 184.377 127.1C185.004 128.171 186.148 130.355 186.676 132.844C190.513 127.642 193.815 116.036 192.2 118.774Z" fill="#E68262"/>
<path d="M186.573 133.309C186.625 133.315 186.625 133.315 186.573 133.309C186.783 133.331 186.951 133.243 187.014 133.144C190.233 128.776 193.428 119.169 192.947 118.218C192.859 118.05 192.713 117.929 192.504 117.907C192.137 117.868 191.941 118.218 191.751 118.515C190.395 120.805 185.919 125.041 184.043 126.747C183.869 126.887 183.842 127.149 183.982 127.322C184.609 128.394 185.758 130.525 186.24 132.957C186.27 133.171 186.416 133.293 186.573 133.309ZM191.851 120.06C191.142 122.736 189.12 128.288 186.892 131.809C186.354 129.9 185.527 128.226 184.947 127.213C187.002 125.314 190.186 122.265 191.851 120.06Z" fill="#E68262"/>
<path d="M196.65 231.909C200.411 233.893 224.556 236.921 225.489 233.634C226.421 230.347 227.511 198.245 227.511 198.245C217.169 202.866 199.405 197.603 199.405 197.603C199.25 200.549 192.89 229.924 196.65 231.909Z" fill="#E46790"/>
<path d="M196.449 232.31C198.251 233.294 204.118 234.391 210.088 235.022C216.216 235.669 222.451 235.799 224.779 234.828C225.388 234.575 225.8 234.196 225.902 233.73C226.835 230.443 227.902 199.556 227.936 198.237C227.953 198.081 227.865 197.912 227.713 197.843C227.562 197.775 227.405 197.758 227.294 197.799C217.23 202.29 199.712 197.212 199.508 197.137C199.357 197.068 199.246 197.11 199.13 197.203C199.014 197.297 198.951 197.396 198.934 197.553C198.92 198.186 198.54 200.262 198.046 202.908C195.112 220.002 193.796 230.866 196.449 232.31ZM198.977 203.112C199.374 200.879 199.663 199.164 199.816 198.228C202.797 199.072 217.5 202.742 227.009 198.986C226.822 203.727 225.859 230.658 225.023 233.532C224.954 233.683 224.775 233.876 224.391 233.994C220.067 235.812 200.31 233.353 196.8 231.501C194.246 230.12 197.59 211.165 198.977 203.112Z" fill="#E46790"/>
<path d="M225.006 306.938C227.482 304.079 229.686 288.864 223.388 277.883C217.148 266.854 213.598 261.401 200.785 258.883C195.237 257.767 183.434 261.175 182.713 264.961C182.713 264.961 193.963 267.737 200.681 281.725C207.4 295.714 206.059 306.311 204.804 309.141C203.549 311.971 222.53 309.798 225.006 306.938Z" fill="#2893D0"/>
<path d="M204.849 310.204C205.246 310.458 205.916 310.634 206.806 310.728C211.782 311.254 223.348 309.567 225.344 307.239C228.069 304.035 229.986 288.526 223.782 277.66C217.454 266.463 213.8 260.998 200.882 258.469C196.521 257.638 188.66 259.347 184.665 262.046C183.296 262.959 182.504 263.934 182.288 264.969C182.26 265.23 182.395 265.456 182.604 265.478C182.709 265.489 193.738 268.348 200.281 282.001C206.653 295.265 205.783 305.912 204.396 308.992C204.194 309.394 204.354 309.887 204.849 310.204ZM201.076 281.503C195.091 269.073 185.477 265.359 183.275 264.65C183.552 264.044 184.153 263.367 185.122 262.729C188.885 260.217 196.537 258.486 200.688 259.295C213.239 261.786 216.8 267.135 222.999 278.053C229.197 288.971 226.847 304.065 224.666 306.638C222.555 309.06 207.481 310.853 205.352 309.464C205.201 309.395 205.206 309.343 205.264 309.296C206.386 306.716 208.146 296.163 201.076 281.503Z" fill="#2893D0"/>
<path d="M179.478 324.808L162.901 219.498L33.5906 212.775L32.4349 213.182L50.3872 303.608L178.625 325.353L179.478 324.808Z" fill="#C0C3D6"/>
<path d="M50.29 304.021L178.528 325.766C178.528 325.766 178.528 325.766 178.58 325.772C178.685 325.783 178.795 325.741 178.853 325.694L179.758 325.155C179.926 325.067 180.001 324.863 179.966 324.701L163.388 219.391C163.358 219.176 163.212 219.055 162.951 219.027L33.6407 212.304C33.5883 212.298 33.5359 212.293 33.478 212.34L32.3223 212.747C32.1016 212.829 31.9745 213.028 32.0046 213.242L49.9569 303.669C49.9869 303.883 50.1329 304.005 50.29 304.021ZM33.645 213.257L162.483 219.931L178.976 324.543L178.466 324.86L50.7459 303.223L32.9306 213.499L33.645 213.257Z" fill="#C0C3D6"/>
<path d="M187.076 320.11L172.258 214.193L39.4795 210.701L33.5909 212.778L162.9 219.502L179.477 324.811L187.076 320.11Z" fill="#9FA3B5"/>
<path d="M33.5406 213.249L162.483 219.934L178.995 324.866C179.03 325.028 179.124 325.144 179.275 325.213C179.328 325.218 179.38 325.224 179.433 325.229C179.537 325.24 179.648 325.199 179.706 325.152L187.304 320.451C187.472 320.363 187.547 320.16 187.511 319.997L172.694 214.08C172.664 213.866 172.471 213.687 172.256 213.717L39.4772 210.225C39.4248 210.22 39.3724 210.214 39.3145 210.261L33.4259 212.338C33.2052 212.42 33.0782 212.619 33.1082 212.833C33.1907 213.054 33.2787 213.222 33.5406 213.249ZM39.5339 211.184L171.894 214.631L186.627 319.851L179.875 324.059L163.383 219.447C163.353 219.232 163.207 219.111 162.997 219.089L35.951 212.499L39.5339 211.184Z" fill="#9FA3B5"/>
<path d="M175.406 100.288C176.453 100.399 177.471 100.295 178.516 99.929C183.742 98.1008 185.793 90.2768 183.082 82.4255C181.785 78.6912 179.635 75.5016 176.991 73.4764C174.254 71.3356 171.256 70.6484 168.672 71.5391C166.088 72.4299 164.139 74.8161 163.352 78.2243C162.529 81.4701 162.809 85.3084 164.106 89.0426C166.235 95.4041 170.902 99.8119 175.406 100.288ZM165.052 78.6685C165.72 75.8825 167.194 73.9752 169.226 73.2907C169.993 73.0543 170.748 72.9225 171.586 73.0111C173 73.1605 174.416 73.7863 175.835 74.8884C178.181 76.7234 180.149 79.6293 181.322 83.033C183.715 89.8985 182.142 96.7149 177.851 98.2187C173.56 99.7225 168.096 95.3363 165.702 88.4708C164.582 85.0726 164.321 81.5537 165.052 78.6685Z" fill="#191446"/>
<path d="M152.34 109.427C153.387 109.538 154.41 109.381 155.298 108.999C157.521 108.017 158.946 105.575 159.251 102.222C159.539 99.0248 158.824 95.2989 157.249 91.6939C155.675 88.0888 153.346 85.0918 150.802 83.1302C148.054 81.0942 145.359 80.5451 143.084 81.5216C138.58 83.5325 137.719 91.1127 141.133 98.8269C143.87 104.935 148.308 109.002 152.34 109.427ZM143.812 83.1328C144.422 82.8798 145.125 82.7424 145.858 82.8198C147.062 82.947 148.327 83.5037 149.698 84.5479C152.003 86.2726 154.138 89.0903 155.589 92.3649C157.04 95.6395 157.731 99.0983 157.476 101.981C157.239 104.707 156.194 106.554 154.581 107.283C151.134 108.824 145.706 104.6 142.804 98.0511C139.901 91.5019 140.365 84.6733 143.812 83.1328Z" fill="#191446"/>
<path d="M161.153 100.84C162.254 99.9507 163.529 98.9214 163.671 97.0849C163.859 94.8299 162.328 91.8115 158.756 87.5724C158.428 87.1675 157.846 87.1591 157.493 87.4921C157.088 87.8196 157.079 88.4005 157.412 88.7531C160.563 92.4716 162.07 95.2229 161.944 96.9024C161.826 98.001 161.015 98.656 160.088 99.4046C159.219 100.106 158.292 100.855 157.85 102.025C157.551 102.84 157.677 103.647 158.134 104.33C159.24 105.875 162.191 106.504 164.39 106.736C165.489 106.852 166.437 106.899 166.809 106.886C167.286 106.883 167.697 106.503 167.753 105.98C167.751 105.504 167.424 105.099 166.848 105.038C164.312 104.982 160.396 104.463 159.623 103.27C159.535 103.102 159.447 102.934 159.591 102.579C159.763 101.962 160.406 101.395 161.153 100.84Z" fill="#62392C"/>
<path d="M164.322 87.4733C164.805 87.4184 165.169 86.9807 165.115 86.4987C165.06 86.0167 164.622 85.6531 164.14 85.7079C159.913 86.1082 157.149 87.1921 155.802 88.9018C154.882 90.0747 155.038 91.0965 155.027 91.2011C155.087 91.6308 155.426 91.9312 155.792 91.9699C155.845 91.9754 155.95 91.9865 156.002 91.992C156.484 91.9371 156.849 91.4994 156.794 91.0174C156.863 90.866 156.729 88.153 164.322 87.4733Z" fill="#191446"/>
<path d="M180.689 79.5377C180.794 79.5488 180.847 79.5543 180.957 79.513C181.12 79.4773 197.745 76.575 205.406 77.7553C205.924 77.863 206.388 77.4884 206.438 77.0172C206.494 76.4936 206.172 76.036 205.7 75.9862C197.783 74.7258 181.367 77.6503 180.664 77.7878C180.176 77.895 179.864 78.3385 179.918 78.8208C179.984 79.1983 180.323 79.499 180.689 79.5377Z" fill="#191446"/>
<path d="M152.16 97.7173C151.661 97.9291 149.618 96.2321 147.868 93.7723C147.592 93.3729 147.022 93.2597 146.622 93.5349C146.222 93.8101 146.108 94.3801 146.383 94.7795C147.162 95.9198 149.718 99.2583 151.865 99.485C152.18 99.5182 152.499 99.499 152.778 99.3697C154.438 98.6985 154.885 95.9947 154.087 90.567C154.033 90.0851 153.543 89.7159 153.06 89.7707C152.578 89.8256 152.208 90.3156 152.262 90.7975C153.274 97.2001 152.16 97.7173 152.16 97.7173Z" fill="#62392C"/>
<path d="M174.672 90.2652C173.633 90.5786 170.932 87.5951 169.175 84.7112C168.905 84.2595 168.335 84.1463 167.935 84.4215C167.482 84.6912 167.368 85.2613 167.644 85.6607C168.593 87.1894 171.597 91.7922 174.32 92.0797C174.634 92.1129 174.954 92.0937 175.227 92.0167C177.254 91.3843 177.996 88.3939 177.695 82.2778C177.693 81.8014 177.261 81.3855 176.726 81.4348C176.249 81.4374 175.833 81.8695 175.881 82.4038C176.176 89.5773 174.835 90.2294 174.672 90.2652Z" fill="#62392C"/>
<path d="M169.911 116.629C170.697 116.712 171.499 116.638 172.277 116.297C173.833 115.615 174.75 113.965 175.07 111.459C175.126 110.936 174.798 110.531 174.28 110.423C173.867 110.327 173.351 110.696 173.243 111.213C172.995 113.039 172.448 114.198 171.502 114.628C170.109 115.274 167.946 114.199 167.252 113.756C166.855 113.502 166.262 113.598 166.008 113.995C165.754 114.391 165.85 114.983 166.246 115.237C166.293 115.295 167.973 116.424 169.911 116.629Z" fill="#62392C"/>
<path d="M214.48 79.1424C214.025 78.9357 213.474 79.1419 213.267 79.5962L209.593 87.726C209.46 87.9766 209.479 88.296 209.614 88.5218C209.749 88.7477 209.994 88.9323 210.308 88.9654L216.958 89.6677C217.482 89.723 217.893 89.3432 217.943 88.8724C217.994 88.4015 217.619 87.9388 217.148 87.889L211.702 87.3139L214.828 80.3431C215.146 79.8476 214.934 79.3492 214.48 79.1424Z" fill="#62392C"/>
<path d="M141.122 79.4668C141.437 79.5 141.715 79.3708 141.9 79.1257C141.958 79.0789 143.353 77.4269 146.744 77.4146C147.221 77.412 147.637 76.9798 147.635 76.5033C147.633 76.0268 147.201 75.6107 146.724 75.6133C142.431 75.6362 140.545 77.9243 140.482 78.0234C140.175 78.4144 140.224 78.9487 140.61 79.3069C140.761 79.3758 140.913 79.4447 141.122 79.4668Z" fill="#62392C"/>
<path d="M161.199 71.0163C161.565 71.055 161.954 70.8845 162.098 70.5293C162.103 70.477 163.563 67.7207 167.623 67.8849C168.1 67.8824 168.564 67.508 168.562 67.0315C168.559 66.555 168.29 66.1033 167.708 66.0948C162.49 65.8612 160.61 69.5785 160.489 69.7244C160.282 70.1788 160.435 70.7241 160.89 70.9309C160.989 70.9943 161.094 71.0053 161.199 71.0163Z" fill="#62392C"/>
</g>
<defs>
<filter id="filter0_dd_3_14308" x="0" y="0" width="339.962" height="377.773" filterUnits="userSpaceOnUse" color-interpolation-filters="sRGB">
<feFlood flood-opacity="0" result="BackgroundImageFix"/>
<feColorMatrix in="SourceAlpha" type="matrix" values="0 0 0 0 0 0 0 0 0 0 0 0 0 0 0 0 0 0 127 0" result="hardAlpha"/>
<feMorphology radius="8" operator="erode" in="SourceAlpha" result="effect1_dropShadow_3_14308"/>
<feOffset dy="20"/>
<feGaussianBlur stdDeviation="20"/>
<feColorMatrix type="matrix" values="0 0 0 0 0.0627451 0 0 0 0 0.0941176 0 0 0 0 0.156863 0 0 0 0.1 0"/>
<feBlend mode="normal" in2="BackgroundImageFix" result="effect1_dropShadow_3_14308"/>
<feColorMatrix in="SourceAlpha" type="matrix" values="0 0 0 0 0 0 0 0 0 0 0 0 0 0 0 0 0 0 127 0" result="hardAlpha"/>
<feMorphology radius="8" operator="erode" in="SourceAlpha" result="effect2_dropShadow_3_14308"/>
<feOffset dy="20"/>
<feGaussianBlur stdDeviation="20"/>
<feColorMatrix type="matrix" values="0 0 0 0 0.0627451 0 0 0 0 0.0941176 0 0 0 0 0.156863 0 0 0 0.05 0"/>
<feBlend mode="normal" in2="effect1_dropShadow_3_14308" result="effect2_dropShadow_3_14308"/>
<feBlend mode="normal" in="SourceGraphic" in2="effect2_dropShadow_3_14308" result="shape"/>
</filter>
</defs>
</svg>
