<svg width="372" height="314" viewBox="0 0 372 314" fill="none" xmlns="http://www.w3.org/2000/svg">
<g filter="url(#filter0_dd_3_13871)">
<path d="M203.439 252.39C219.732 246.966 203.976 132.037 193.097 135.653C182.219 139.269 172.219 153.049 170.609 171.764C169.633 182.758 169.828 209.194 170.121 229.033L184.024 186.032C184.024 186.032 184.756 238.464 181.341 255.078C187.439 255.371 195.488 255.029 203.439 252.39Z" fill="#C0C3D6"/>
<path d="M181 255.273C181.097 255.371 181.195 255.42 181.292 255.42C182.609 255.468 183.926 255.517 185.244 255.517C191.829 255.517 197.976 254.589 203.537 252.732C217.049 248.237 209.586 173.816 200.22 145.475C197.683 137.754 195.293 134.382 192.951 135.164C181.048 139.122 171.682 154.075 170.17 171.617C169.194 182.612 169.389 208.852 169.682 228.935C169.682 229.131 169.828 229.326 170.024 229.326C170.268 229.375 170.414 229.228 170.463 229.033L183.536 188.475C183.634 199.226 183.78 240.565 180.853 254.833C180.902 255.078 180.902 255.175 181 255.273ZM184.414 185.983C184.414 185.788 184.268 185.592 184.073 185.592C183.878 185.543 183.683 185.69 183.634 185.885L170.511 226.492C170.219 206.8 170.121 182.269 171.048 171.813C172.56 154.612 181.683 139.953 193.244 136.093C194.951 135.555 197.244 139.073 199.488 145.866C204.025 159.645 208.22 185.104 209.586 207.826C211.196 233.675 208.854 250.191 203.342 252.048C196.902 254.198 189.683 255.078 181.878 254.687C185.097 237.682 184.414 186.521 184.414 185.983Z" fill="#C0C3D6"/>
<path d="M170.609 253.563C170.609 253.563 174.951 254.638 181.341 255.029C184.707 238.415 184.024 185.983 184.024 185.983L170.121 228.984C170.316 242.861 170.609 253.563 170.609 253.563Z" fill="#9FA3B5"/>
<path d="M184.073 185.592C183.878 185.543 183.683 185.69 183.634 185.886L169.731 228.886C169.731 228.935 169.731 228.984 169.731 229.033C169.926 242.764 170.219 253.514 170.219 253.612C170.219 253.807 170.365 253.954 170.512 254.003C170.56 254.003 174.951 255.126 181.341 255.469C181.536 255.469 181.731 255.322 181.731 255.126C185.097 238.659 184.414 186.521 184.414 185.983C184.414 185.788 184.268 185.592 184.073 185.592ZM181 254.589C175.878 254.296 172.073 253.514 170.999 253.27C170.951 251.364 170.707 241.444 170.512 229.082L183.585 188.573C183.683 199.274 183.829 240.027 181 254.589Z" fill="#9FA3B5"/>
<path d="M186.61 134.48C179.78 140.051 181.244 146.745 181.244 146.745C181.244 146.745 187.878 157.398 195.683 149.824C203.537 142.201 193.439 128.91 186.61 134.48Z" fill="#504566"/>
<path d="M186.366 134.138C179.39 139.806 180.805 146.501 180.853 146.794C180.853 146.843 180.902 146.892 180.902 146.941C181.049 147.136 184.268 152.316 189.049 152.902C189.342 152.951 189.634 152.951 189.927 152.951C192.024 152.951 194.073 152.022 196.025 150.117C200.513 145.768 199.391 139.464 196.073 135.751C193.634 132.965 189.683 131.451 186.366 134.138ZM195.439 149.481C193.439 151.436 191.293 152.316 189.146 152.022C185.049 151.534 182.024 147.087 181.634 146.55C181.488 145.817 180.61 139.904 186.854 134.773C189.927 132.232 193.39 133.991 195.39 136.239C198.513 139.709 199.537 145.523 195.439 149.481Z" fill="#504566"/>
<path d="M193.732 248.237C201.634 249.116 239.44 252.439 265.051 240.809C264.954 239.881 264.807 238.855 264.661 237.828C253.197 237.242 238.562 177.823 238.562 177.823C243.441 175.38 252.124 187.4 258.905 201.327L257.002 130.033C257.002 130.033 222.123 113.859 198.464 117.573C174.804 121.287 166.853 118.843 166.853 118.843C166.853 118.843 130.315 125.245 118.412 142.836C110.802 154.075 106.119 196 103.046 219.993C114.266 202.841 131.974 182.025 131.974 182.025C131.974 182.025 135.73 209.438 127.242 225.319C124.169 231.085 122.168 237.389 120.9 243.155C134.852 247.406 156.706 251.852 178.024 247.308C180.707 223.951 191.293 149.481 186.171 144.693C180.365 139.269 174.463 126.027 185.292 126.564C196.122 127.102 192.902 143.178 192.902 143.178C190.902 152.365 190.415 221.068 193.732 248.237Z" fill="#FCD375"/>
<path d="M193.292 248.285C193.292 248.481 193.488 248.627 193.683 248.676C196.707 249.018 204.903 249.8 215.293 249.8C230.318 249.8 249.977 248.188 265.197 241.249C265.344 241.151 265.441 241.005 265.441 240.809C265.344 239.881 265.197 238.855 265.051 237.828C265.002 237.633 264.856 237.486 264.661 237.486C261.539 237.34 256.026 232.013 247.684 207.581C243.099 194.095 239.635 180.51 239.05 178.214C239.684 178.018 240.367 178.018 241.148 178.312C245.587 179.826 252.221 188.769 258.514 201.669C258.612 201.864 258.807 201.962 259.002 201.913C259.197 201.864 259.343 201.669 259.343 201.473L257.441 130.18C257.441 130.033 257.343 129.887 257.197 129.789C256.855 129.642 221.928 113.615 198.415 117.28C175.194 120.945 167.048 118.599 166.999 118.599C166.95 118.599 166.853 118.55 166.804 118.599C166.414 118.648 129.925 125.196 118.071 142.738C111.046 153.097 106.46 189.501 103.436 213.592C103.143 215.839 102.899 217.989 102.607 220.042C102.558 220.237 102.704 220.433 102.899 220.482C103.094 220.53 103.29 220.482 103.387 220.335C113.29 205.187 128.412 187.009 131.681 183.149C132.217 188.133 134.315 211.344 126.851 225.221C124.12 230.303 121.973 236.314 120.461 243.155C120.412 243.35 120.558 243.594 120.754 243.643C135.242 248.041 156.95 252.341 178.072 247.797C178.268 247.748 178.365 247.601 178.414 247.455C178.902 243.399 179.585 237.828 180.414 231.378C185.682 189.502 190.512 148.26 186.463 144.448C182.219 140.49 178.463 133.063 180.024 129.349C180.707 127.688 182.463 126.906 185.243 127.004C187.585 127.102 189.39 127.981 190.658 129.594C194.219 134.138 192.463 143.031 192.463 143.129C190.366 152.853 190.122 221.996 193.292 248.285ZM191.244 129.056C189.829 127.248 187.78 126.222 185.195 126.124C181.292 125.929 179.731 127.59 179.146 128.958C177.292 133.307 181.78 141.223 185.78 144.986C189.878 148.797 183.097 202.402 179.487 231.183C178.707 237.486 178.024 242.959 177.536 246.966C156.852 251.315 135.632 247.162 121.29 242.861C122.802 236.265 124.9 230.401 127.485 225.515C135.974 209.683 132.315 182.221 132.266 181.976C132.266 181.83 132.12 181.683 131.973 181.634C131.827 181.585 131.632 181.634 131.534 181.781C131.339 181.976 114.656 201.571 103.533 218.283C103.729 216.768 103.924 215.253 104.119 213.641C107.143 189.648 111.68 153.342 118.607 143.129C129.973 126.32 164.609 119.723 166.706 119.332C167.731 119.625 176.072 121.531 198.415 118.013C220.659 114.543 253.392 128.958 256.465 130.327L258.319 199.47C253.392 189.648 246.562 179.191 241.343 177.432C240.221 177.041 239.196 177.09 238.318 177.53C238.123 177.627 238.074 177.823 238.074 178.018C238.123 178.165 241.782 193.069 246.855 207.826C253.49 227.322 259.343 237.584 264.222 238.317C264.319 239.099 264.417 239.881 264.514 240.663C239.294 251.95 202.122 248.823 194.073 247.943C190.756 219.846 191.439 151.974 193.195 143.373C193.292 142.885 195 133.894 191.244 129.056Z" fill="#FCD375"/>
<path d="M119.046 254.003C123.29 255.517 128.12 256.739 133.486 257.228C153.584 259.133 177.097 262.603 177.341 253.563C177.39 252.537 177.585 250.338 177.926 247.308C156.657 251.853 134.754 247.357 120.803 243.155C119.924 247.21 119.388 250.973 119.046 254.003Z" fill="#504566"/>
<path d="M120.949 242.764C120.851 242.715 120.705 242.764 120.607 242.812C120.51 242.861 120.412 242.959 120.412 243.106C119.632 246.624 119.046 250.289 118.607 254.002C118.607 254.198 118.705 254.393 118.9 254.442C123.681 256.153 128.559 257.228 133.437 257.716C135.632 257.912 137.876 258.156 140.169 258.4C148.023 259.182 156.023 260.013 162.609 260.013C168.804 260.013 173.731 259.28 176.121 257.179C177.195 256.25 177.731 255.077 177.78 253.66C177.829 252.683 177.975 250.729 178.365 247.455C178.365 247.308 178.317 247.21 178.219 247.113C178.121 247.015 177.975 246.966 177.829 247.015C156.901 251.364 135.34 247.113 120.949 242.764ZM176.902 253.563C176.853 254.735 176.414 255.664 175.536 256.446C170.853 260.55 155.292 258.987 140.218 257.472C137.974 257.228 135.73 257.032 133.486 256.788C128.803 256.348 124.12 255.322 119.485 253.709C119.876 250.289 120.412 246.917 121.144 243.692C135.486 247.992 156.706 252.146 177.439 247.846C177.097 250.826 176.951 252.634 176.902 253.563Z" fill="#504566"/>
<path d="M193.731 248.237C194.414 253.856 195.244 257.716 196.268 258.889C202.219 265.632 265.441 258.596 265.685 249.703C265.734 247.797 265.49 244.621 265.002 240.858C239.391 252.439 201.634 249.067 193.731 248.237Z" fill="#504566"/>
<path d="M265.197 240.418C265.1 240.369 264.953 240.369 264.807 240.418C239.196 252.048 201.098 248.579 193.732 247.797C193.585 247.797 193.488 247.846 193.39 247.894C193.293 247.992 193.244 248.09 193.293 248.237C194.024 254.394 194.902 257.912 195.927 259.133C197.683 261.137 203.976 261.967 212.122 261.967C226.903 261.967 247.782 259.182 258.661 255.224C263.539 253.465 266.075 251.559 266.124 249.654C266.173 247.895 265.929 244.865 265.441 240.711C265.392 240.614 265.344 240.516 265.197 240.418ZM265.246 249.654C265.197 251.168 262.758 252.879 258.319 254.442C240.66 260.795 200.805 263.482 196.512 258.547C195.927 257.863 195 255.566 194.122 248.676C202.61 249.556 239.392 252.586 264.612 241.396C265.1 245.256 265.295 247.992 265.246 249.654Z" fill="#504566"/>
<path d="M100.753 239.001C103.485 237.389 106.07 237.731 106.07 237.731C106.07 237.731 111.778 240.369 120.851 243.106C122.119 237.34 124.12 231.036 127.193 225.27C135.681 209.389 131.925 181.976 131.925 181.976C131.925 181.976 114.168 202.744 102.997 219.944C101.924 228.055 101.192 234.848 100.753 239.001Z" fill="#E8AE37"/>
<path d="M132.022 181.585C131.876 181.536 131.681 181.585 131.583 181.732C131.388 181.927 113.68 202.744 102.607 219.749C102.558 219.797 102.558 219.846 102.558 219.944C101.534 228.007 100.802 234.75 100.363 239.001C100.363 239.148 100.412 239.294 100.558 239.392C100.704 239.49 100.851 239.49 100.997 239.392C103.338 238.024 105.582 238.17 105.973 238.17C106.656 238.464 112.266 241.005 120.705 243.545C120.754 243.545 120.802 243.545 120.802 243.545C120.9 243.545 120.949 243.545 120.998 243.497C121.095 243.448 121.193 243.35 121.193 243.203C122.705 236.411 124.803 230.45 127.486 225.466C135.974 209.634 132.315 182.172 132.266 181.927C132.315 181.781 132.169 181.634 132.022 181.585ZM126.803 225.124C124.168 230.059 122.022 235.972 120.51 242.617C111.827 239.978 106.314 237.389 106.217 237.389C106.168 237.389 106.119 237.34 106.119 237.34C106.07 237.34 105.826 237.291 105.436 237.291C104.558 237.291 102.997 237.437 101.241 238.268C101.68 234.017 102.412 227.665 103.338 220.091C113.241 204.943 128.315 186.814 131.583 183.002C132.169 187.987 134.266 211.197 126.803 225.124Z" fill="#E8AE37"/>
<path d="M100.753 239.001C100.46 241.835 100.314 243.448 100.314 243.448C100.314 243.448 107.387 249.849 119.046 254.003C119.388 250.973 119.924 247.21 120.851 243.155C111.827 240.418 106.07 237.78 106.07 237.78C106.07 237.78 103.485 237.389 100.753 239.001Z" fill="#191446"/>
<path d="M106.266 237.389C106.217 237.389 106.168 237.34 106.168 237.34C106.07 237.34 103.387 236.998 100.607 238.659C100.509 238.708 100.412 238.855 100.412 239.001C100.119 241.835 99.9727 243.448 99.9727 243.448C99.9727 243.594 100.021 243.692 100.119 243.79C100.168 243.839 107.388 250.289 118.998 254.393C119.046 254.393 119.095 254.442 119.144 254.442C119.242 254.442 119.29 254.442 119.388 254.393C119.485 254.345 119.583 254.198 119.583 254.1C119.973 250.435 120.607 246.771 121.339 243.301C121.388 243.106 121.242 242.861 121.047 242.813C112.071 240.027 106.314 237.389 106.266 237.389ZM118.705 253.416C108.461 249.702 101.826 244.23 100.753 243.301C100.802 242.813 100.948 241.396 101.143 239.294C103.436 238.024 105.583 238.17 105.973 238.17C106.607 238.464 112.071 240.907 120.364 243.448C119.632 246.673 119.095 250.044 118.705 253.416Z" fill="#191446"/>
<path d="M238.514 177.872C238.514 177.872 253.148 237.242 264.612 237.877C262.71 223.804 258.905 203.965 258.905 203.965L258.856 201.375C252.124 187.449 243.392 175.429 238.514 177.872Z" fill="#E8AE37"/>
<path d="M259.246 201.18C254.27 190.919 246.953 179.289 241.392 177.383C240.27 176.992 239.246 177.041 238.367 177.481C238.172 177.579 238.124 177.774 238.124 177.969C238.709 180.413 252.953 237.633 264.612 238.268C264.71 238.268 264.856 238.219 264.905 238.122C265.002 238.024 265.051 237.926 265.002 237.78C263.1 223.853 259.344 204.014 259.295 203.916L259.246 201.327C259.295 201.278 259.295 201.229 259.246 201.18ZM264.124 237.34C253.636 235.141 240.221 182.905 239.002 178.116C239.636 177.921 240.319 177.921 241.099 178.214C245.538 179.729 252.173 188.622 258.417 201.473L258.514 204.014C258.563 204.21 262.222 223.462 264.124 237.34Z" fill="#E8AE37"/>
<path d="M211.244 124.414C210.318 124.316 209.488 124.952 209.391 125.88C209.293 126.808 209.927 127.639 210.854 127.737C225.294 129.496 246.514 133.894 248.465 138.292C248.758 138.927 249.343 139.269 249.977 139.269C250.221 139.269 250.416 139.22 250.66 139.122C251.49 138.731 251.88 137.754 251.49 136.874C248.075 129.203 217.391 125.147 211.244 124.414Z" fill="#4461AB"/>
<path d="M160.706 127.346C159.633 127.395 134.559 128.421 117.729 151.534C117.193 152.267 117.339 153.342 118.12 153.879C118.412 154.075 118.754 154.221 119.095 154.221C119.632 154.221 120.12 153.977 120.461 153.537C136.315 131.793 160.609 130.718 160.853 130.718C161.78 130.669 162.511 129.936 162.463 128.958C162.414 128.03 161.682 127.346 160.804 127.346C160.706 127.346 160.706 127.346 160.706 127.346Z" fill="#4461AB"/>
<path d="M114.51 91.3328C111.924 97.2943 115.729 124.61 115.729 124.61L130.705 134.334C130.705 134.334 149.633 124.072 150.169 112.296C150.706 100.519 134.901 76.2825 134.901 76.2825C134.901 76.2825 117.095 85.3713 114.51 91.3328Z" fill="#F9C09D"/>
<path d="M134.754 75.9405C134.023 76.3314 116.754 85.127 114.168 91.1862C111.583 97.1965 115.193 123.583 115.339 124.707C115.339 124.805 115.437 124.951 115.534 125L130.51 134.724C130.559 134.773 130.657 134.773 130.754 134.773C130.803 134.773 130.901 134.773 130.949 134.724C131.73 134.285 150.072 124.17 150.609 112.296C151.145 100.519 135.925 77.0644 135.291 76.0382C135.145 75.8916 134.901 75.8428 134.754 75.9405ZM149.779 112.296C149.291 123.046 132.852 132.672 130.754 133.894L116.12 124.414C115.778 121.971 112.51 97.0499 114.9 91.5282C117.193 86.202 132.315 78.1882 134.754 76.8689C136.608 79.7519 150.267 101.497 149.779 112.296Z" fill="#F9C09D"/>
<path d="M128.169 101.35C120.071 105.259 119.291 121.726 119.291 121.726C119.291 121.726 123.437 120.407 126.852 116.645C130.218 112.833 146.267 114.592 147.584 115.423C148.852 116.254 136.267 97.4408 128.169 101.35Z" fill="#F9AE82"/>
<path d="M127.974 100.959C119.73 104.966 118.852 120.994 118.852 121.678C118.852 121.824 118.9 121.922 118.998 122.02C119.095 122.069 119.144 122.117 119.242 122.117C119.291 122.117 119.339 122.117 119.388 122.117C119.583 122.069 123.681 120.749 127.096 116.889C130.315 113.322 146.17 115.032 147.291 115.765C147.438 115.863 147.779 115.863 147.926 115.716C148.121 115.521 148.365 115.228 145.974 111.954C144.169 109.559 134.852 97.6364 127.974 100.959ZM146.852 114.739C143.047 113.81 129.681 112.784 126.51 116.351C123.974 119.186 120.998 120.603 119.73 121.091C119.974 118.062 121.437 105.064 128.364 101.692C129.047 101.35 129.779 101.203 130.608 101.203C131.681 101.203 132.852 101.497 134.12 102.083C139.681 104.771 145.389 112.296 146.852 114.739Z" fill="#F9AE82"/>
<path d="M127.778 79.9473C122.9 82.4394 122.705 91.8214 127.339 100.91C131.974 109.999 139.681 115.374 144.559 112.882C149.438 110.39 149.633 101.008 144.999 91.9191C140.364 82.8303 132.657 77.4552 127.778 79.9473Z" fill="#924260"/>
<path d="M127.632 79.5563C122.559 82.1462 122.315 91.8214 127.047 101.106C129.339 105.552 132.413 109.315 135.681 111.611C137.876 113.175 140.071 113.957 141.974 113.957C142.998 113.957 143.925 113.762 144.803 113.322C147.291 112.051 148.706 109.07 148.803 104.966C148.901 100.959 147.681 96.268 145.389 91.8214C140.657 82.4394 132.657 76.9665 127.632 79.5563ZM147.925 104.868C147.828 108.68 146.608 111.367 144.364 112.491C142.169 113.615 139.242 113.029 136.12 110.878C132.949 108.631 129.973 105.064 127.73 100.715C123.193 91.8213 123.339 82.6837 127.973 80.2893C128.705 79.8984 129.534 79.703 130.413 79.703C134.949 79.703 140.803 84.6383 144.608 92.0657C146.852 96.4635 148.023 101.008 147.925 104.868Z" fill="#924260"/>
<path d="M133.291 77.6018C128.51 80.045 128.364 89.2315 132.9 98.1249C137.437 107.018 144.95 112.296 149.73 109.852C154.511 107.409 154.657 98.2226 150.12 89.3293C145.584 80.3871 138.023 75.1586 133.291 77.6018Z" fill="#191446"/>
<path d="M133.096 77.2111C128.12 79.752 127.876 89.2317 132.51 98.3205C134.754 102.669 137.73 106.334 140.998 108.582C143.145 110.097 145.291 110.879 147.145 110.879C148.12 110.879 149.047 110.683 149.925 110.243C154.901 107.702 155.145 98.2228 150.511 89.134C145.876 79.9963 138.023 74.6701 133.096 77.2111ZM149.535 109.462C147.389 110.586 144.511 109.999 141.486 107.898C138.364 105.748 135.437 102.181 133.291 97.9296C128.852 89.2317 128.949 80.2896 133.535 77.9441C134.266 77.5531 135.096 77.4065 135.925 77.4065C140.364 77.4065 146.072 82.2441 149.779 89.476C154.169 98.1739 154.072 107.165 149.535 109.462Z" fill="#191446"/>
<path d="M172.073 138.536C167.877 142.689 168.414 155.834 168.414 155.834C168.414 155.834 175.243 144.546 186.61 145.572C186.61 145.621 176.219 134.382 172.073 138.536Z" fill="#E8AE37"/>
<path d="M174.512 137.168C173.39 137.168 172.463 137.51 171.78 138.194C167.536 142.445 167.975 155.296 168.024 155.834C168.024 156.029 168.17 156.176 168.317 156.225C168.365 156.225 168.365 156.225 168.414 156.225C168.56 156.225 168.707 156.127 168.756 156.029C168.804 155.932 175.585 144.986 186.561 145.963C186.756 145.963 186.902 145.866 187 145.719C187.098 145.572 187.049 145.377 186.951 145.23C186.61 144.986 179.439 137.265 174.512 137.168ZM185.146 145.133C176.658 145.133 170.804 151.876 168.804 154.563C168.804 151.192 169.097 142.054 172.317 138.878C172.853 138.34 173.536 138.096 174.365 138.096C174.414 138.096 174.414 138.096 174.463 138.096C178.17 138.194 183.585 143.227 185.537 145.181C185.439 145.133 185.293 145.133 185.146 145.133Z" fill="#E8AE37"/>
<path d="M192.024 145.181C192.024 145.181 201 138.682 212.903 153.879C212.903 153.879 208.22 135.457 203.439 135.653C198.708 135.799 193.634 138.682 192.024 145.181Z" fill="#E8AE37"/>
<path d="M203.537 135.213C203.488 135.213 203.488 135.213 203.439 135.213C198.903 135.409 193.39 138.047 191.634 145.084C191.585 145.279 191.683 145.426 191.78 145.523C191.927 145.621 192.122 145.621 192.268 145.523C192.61 145.279 201.098 139.464 212.562 154.124C212.659 154.221 212.757 154.27 212.903 154.27C212.952 154.27 213.049 154.27 213.098 154.221C213.293 154.124 213.391 153.928 213.342 153.733C212.854 151.827 208.464 135.213 203.537 135.213ZM197.146 143.422C195.146 143.422 193.585 143.911 192.707 144.351C194.61 138.487 199.439 136.19 203.488 136.044H203.537C206.757 136.044 210.366 146.305 212.025 152.071C206.025 145.084 200.805 143.422 197.146 143.422Z" fill="#E8AE37"/>
<path d="M175.439 117.573C173.926 117.915 173.048 118.159 173.048 118.159C173.048 118.159 182.073 146.403 189 145.621C193.878 145.084 201.391 127.981 203.001 118.355C183.976 142.836 175.439 117.573 175.439 117.573Z" fill="#F9C09D"/>
<path d="M202.61 118.062C196.61 125.831 191.098 129.301 186.22 128.519C179.244 127.346 175.829 117.573 175.829 117.475C175.78 117.28 175.536 117.133 175.341 117.182L172.951 117.769C172.853 117.817 172.756 117.866 172.658 117.964C172.609 118.062 172.609 118.208 172.609 118.306C173 119.479 181.585 146.061 188.659 146.061C188.756 146.061 188.854 146.061 189 146.061C194.415 145.426 201.879 127.395 203.391 118.453C203.44 118.257 203.342 118.062 203.147 118.013C202.952 117.817 202.757 117.866 202.61 118.062ZM188.903 145.181C188.805 145.181 188.756 145.181 188.659 145.181C183.39 145.181 176.122 126.369 173.536 118.453L175.146 118.062C175.829 119.919 179.293 128.177 186.073 129.3C191 130.131 196.415 126.955 202.22 119.87C200.025 130.131 193 144.693 188.903 145.181Z" fill="#F9C09D"/>
<path d="M201.244 111.905C195.781 112.882 181.195 116.205 175.438 117.573C175.438 117.573 183.975 142.836 202.952 118.306C203.635 114.25 203.293 111.563 201.244 111.905Z" fill="#E68262"/>
<path d="M201.195 111.514C195.976 112.442 182.756 115.472 175.341 117.182C175.243 117.231 175.146 117.28 175.048 117.378C174.999 117.475 175 117.622 175 117.72C175.146 118.159 178.561 128.079 186.073 129.349C186.561 129.447 187.097 129.496 187.634 129.496C192.463 129.496 197.683 125.831 203.293 118.599C203.342 118.55 203.342 118.501 203.391 118.404C203.976 115.081 203.781 112.882 202.854 112.003C202.561 111.66 202.025 111.318 201.195 111.514ZM202.22 112.54C202.61 112.931 203.196 114.201 202.561 118.111C196.61 125.782 191.098 129.252 186.219 128.47C180.122 127.444 176.756 119.772 175.975 117.866C182.219 116.4 196.073 113.224 201.293 112.296C201.732 112.247 202.025 112.344 202.22 112.54Z" fill="#E68262"/>
<path d="M192.024 145.181C202.122 125.342 212.903 153.879 212.903 153.879C212.903 153.879 215.976 128.421 214.415 124.316C212.903 120.212 203.244 114.543 203.244 114.543C203.244 114.543 204.22 117.378 199 128.177C193.781 138.976 192.024 145.181 192.024 145.181Z" fill="#2893D0"/>
<path d="M191.634 145.084C191.585 145.279 191.683 145.524 191.878 145.572C192.073 145.67 192.317 145.572 192.415 145.377C194.756 140.735 197.342 138.438 200.025 138.585C206.756 138.927 212.464 153.831 212.513 154.026C212.562 154.173 212.757 154.319 212.903 154.319H212.952C213.147 154.319 213.293 154.124 213.342 153.928C213.488 152.902 216.415 128.323 214.854 124.17C213.293 119.967 203.927 114.397 203.488 114.153C203.342 114.055 203.147 114.104 203 114.201C202.854 114.299 202.805 114.495 202.854 114.641C202.854 114.69 203.634 117.622 198.659 127.932C193.537 138.634 191.634 144.986 191.634 145.084ZM203.781 115.325C206.025 116.694 212.854 121.189 214.074 124.463C215.342 127.835 213.342 146.55 212.708 152.169C211.001 148.211 206.074 138.047 200.122 137.754C200.025 137.754 199.927 137.754 199.829 137.754C197.683 137.754 195.634 139.073 193.732 141.614C194.805 138.731 196.659 134.187 199.439 128.323C203.147 120.603 203.732 116.84 203.781 115.325Z" fill="#2893D0"/>
<path d="M228.562 88.352C229.099 80.9735 237.733 39.4387 201.927 28.9817C166.121 18.5247 133.779 31.8159 129.339 62.4051C129.339 62.4051 129.925 84.8827 138.901 90.6976C147.877 96.5124 148.608 118.99 143.291 121.873C140.267 123.534 147.584 122.704 154.365 121.678C158.023 116.84 155.243 105.552 153.243 103.207C151.096 100.617 149.047 92.359 147.486 87.9123C145.925 83.4656 147.437 79.3121 147.437 79.3121C147.437 79.3121 165.78 102.865 171.975 114.934C173.341 113.908 174.268 113.224 174.268 113.224H195.634C196.903 105.65 204.269 76.9667 204.269 76.9667C204.269 76.9667 209.147 77.9928 212.903 79.3121C216.659 80.6315 218.708 98.3694 212.22 105.308C207.976 109.901 209.342 116.742 210.805 120.945C213.537 122.117 216.562 123.046 219.83 123.388C219.83 123.388 215.879 112.54 219.83 107.654C223.879 102.816 228.025 95.7794 228.562 88.352Z" fill="#4461AB"/>
<path d="M229.001 88.4009C229.05 87.7656 229.148 86.8372 229.294 85.6644C230.709 73.9369 235.05 38.2171 202.025 28.5908C181.341 22.5805 161.438 24.2907 147.389 33.3307C137.096 39.9274 130.705 49.9934 128.9 62.4538C128.949 63.3822 129.583 85.2247 138.657 91.0884C143.974 94.5578 146.462 104.379 146.169 112.296C145.974 117.084 144.803 120.603 143.096 121.531C142.754 121.726 142.023 122.117 142.218 122.704C142.364 123.192 142.608 123.925 154.462 122.117C154.56 122.117 154.657 122.02 154.755 121.971C158.609 116.84 155.633 105.357 153.633 102.963C152.121 101.155 150.56 96.1215 149.34 92.0657C148.852 90.502 148.413 89.0361 147.974 87.8145C146.901 84.6383 147.389 81.6087 147.73 80.2405C150.706 84.1008 166.17 104.38 171.731 115.179C171.78 115.276 171.877 115.374 172.024 115.374C172.121 115.423 172.268 115.374 172.365 115.325C173.487 114.543 174.268 113.908 174.56 113.664H195.781C195.976 113.664 196.171 113.517 196.22 113.322C197.39 106.334 203.878 80.9734 204.756 77.5041C205.976 77.7973 209.879 78.6769 212.952 79.7519C213.879 80.0451 214.806 81.7553 215.391 84.2474C216.806 89.9157 216.708 100.128 212.074 105.064C207.83 109.657 208.903 116.302 210.562 121.14C210.61 121.238 210.708 121.336 210.805 121.384C213.928 122.704 217.001 123.534 219.928 123.877H219.976C220.123 123.877 220.22 123.828 220.318 123.73C220.416 123.632 220.416 123.486 220.367 123.339C220.318 123.241 216.513 112.638 220.318 107.996C223.245 104.233 228.367 96.8056 229.001 88.4009ZM219.342 122.899C216.757 122.557 214.025 121.824 211.293 120.651C209.732 116.107 208.757 109.852 212.659 105.601C217.489 100.422 217.635 89.8179 216.171 84.0031C215.781 82.3417 214.806 79.5076 213.196 78.9212C209.44 77.6019 204.561 76.5757 204.513 76.5757C204.269 76.5268 204.074 76.6734 204.025 76.8688C203.976 77.162 196.854 104.819 195.439 112.833H174.463C174.365 112.833 174.268 112.882 174.219 112.931C174.219 112.931 173.487 113.517 172.316 114.348C165.975 102.23 148.169 79.312 147.974 79.0677C147.877 78.97 147.73 78.8723 147.584 78.9212C147.438 78.9212 147.291 79.0677 147.242 79.2143C147.194 79.4098 145.681 83.5632 147.242 88.1076C147.633 89.2804 148.121 90.7464 148.56 92.31C149.877 96.659 151.389 101.594 153.048 103.549C154.852 105.699 157.633 116.547 154.218 121.384C146.657 122.508 144.169 122.557 143.34 122.459C143.389 122.41 143.486 122.362 143.535 122.313C145.535 121.238 146.852 117.475 147.047 112.344C147.34 104.428 144.998 94.1669 139.145 90.4044C130.461 84.785 129.778 62.6982 129.778 62.5516C131.535 50.3844 137.828 40.5626 147.877 34.0636C161.731 25.1703 181.39 23.46 201.83 29.4215C234.123 38.8523 229.879 74.0347 228.513 85.5667C228.367 86.7395 228.269 87.6679 228.221 88.3032C227.635 96.4635 222.611 103.744 219.684 107.36C216.074 111.758 218.513 120.456 219.342 122.899Z" fill="#4461AB"/>
<path d="M164.267 120.114C166.95 118.599 170.023 116.449 172.072 114.983C165.877 102.914 147.535 79.361 147.535 79.361C147.535 79.361 146.023 83.5145 147.584 87.9612C149.145 92.4078 151.145 100.666 153.34 103.256C155.34 105.601 158.072 116.889 154.462 121.726C159.486 120.993 164.267 120.114 164.267 120.114Z" fill="#283A84"/>
<path d="M154.023 121.922C154.12 122.069 154.218 122.117 154.364 122.117H154.413C159.438 121.384 164.267 120.505 164.316 120.505C164.365 120.505 164.414 120.456 164.462 120.456C167.145 118.941 170.17 116.84 172.267 115.276C172.414 115.179 172.511 114.934 172.414 114.739C166.267 102.767 148.023 79.2633 147.828 79.019C147.73 78.9213 147.584 78.8235 147.437 78.8724C147.291 78.8724 147.145 79.019 147.096 79.1656C147.047 79.3611 145.535 83.5145 147.096 88.0589C147.486 89.2317 147.974 90.6975 148.413 92.2612C149.73 96.6101 151.242 101.545 152.901 103.5C154.755 105.699 157.535 116.742 153.974 121.482C153.974 121.629 153.925 121.775 154.023 121.922ZM153.633 102.963C152.12 101.155 150.559 96.1215 149.34 92.0658C148.852 90.5021 148.413 89.0362 147.974 87.8146C146.901 84.6384 147.389 81.6088 147.73 80.2406C150.706 84.1009 165.877 103.989 171.536 114.837C169.487 116.303 166.657 118.306 164.17 119.674C163.584 119.772 159.633 120.456 155.291 121.14C158.316 115.716 155.535 105.21 153.633 102.963Z" fill="#283A84"/>
<path d="M213 79.361C209.195 78.0417 204.366 77.0155 204.366 77.0155C204.366 77.0155 197 105.748 195.731 113.273H198.854C198.854 113.273 203.78 117.915 210.903 120.994C209.439 116.791 208.073 109.95 212.317 105.357C218.805 98.3693 216.805 80.6315 213 79.361Z" fill="#283A84"/>
<path d="M216.123 84.0031C215.732 82.3417 214.757 79.5076 213.147 78.9213C209.391 77.6019 204.512 76.5758 204.464 76.5758C204.22 76.5269 204.025 76.6734 203.976 76.8689C203.878 77.1621 196.561 105.699 195.341 113.175C195.341 113.273 195.341 113.419 195.439 113.517C195.536 113.615 195.634 113.664 195.78 113.664H198.756C199.585 114.397 204.317 118.55 210.805 121.336C210.854 121.336 210.903 121.384 210.952 121.384C211.049 121.384 211.147 121.336 211.244 121.287C211.342 121.189 211.391 120.993 211.342 120.847C209.732 116.254 208.659 109.901 212.659 105.65C217.488 100.422 217.586 89.8669 216.123 84.0031ZM210.22 120.212C203.683 117.231 199.195 113.029 199.146 112.98C199.049 112.882 198.951 112.882 198.854 112.882H196.219C197.585 105.308 203.781 80.9247 204.659 77.553C205.878 77.8462 209.781 78.7257 212.854 79.8007C213.781 80.0939 214.708 81.8043 215.293 84.2964C216.708 89.9646 216.61 100.177 211.976 105.113C208.025 109.364 208.756 115.521 210.22 120.212Z" fill="#283A84"/>
<path d="M144.267 88.3519C142.657 96.268 153.438 100.275 156.706 98.6134C159.926 97.0009 151.291 82.7325 151.291 82.7325C151.291 82.7325 145.925 80.4359 144.267 88.3519Z" fill="#F9AE82"/>
<path d="M151.487 82.3905C151.389 82.3416 149.389 81.511 147.34 82.586C145.633 83.4656 144.462 85.4202 143.877 88.3032C143.242 91.4793 144.462 94.5089 147.34 96.7078C149.535 98.4181 152.56 99.4443 154.853 99.4443C155.633 99.4443 156.365 99.2977 156.901 99.0533C157.34 98.8579 157.584 98.467 157.731 97.9783C158.755 94.3624 151.926 83.0747 151.633 82.586C151.633 82.4883 151.535 82.4394 151.487 82.3905ZM156.95 97.734C156.853 98.0272 156.755 98.1737 156.511 98.2715C154.853 99.1021 150.804 98.3204 147.828 96.0238C145.974 94.6067 143.925 92.1146 144.657 88.4498C145.194 85.8111 146.218 84.1008 147.682 83.319C148.316 82.977 148.95 82.8792 149.535 82.8792C150.218 82.8792 150.804 83.0257 150.999 83.1235C152.999 86.3974 157.731 95.0465 156.95 97.734Z" fill="#F9AE82"/>
<path d="M153.486 34.65C153.486 34.65 177.292 24.4862 193.683 31.3761C210.074 38.2172 221.781 63.3823 224.123 74.1813C226.464 84.9804 231.147 57.6652 231.147 57.6652C231.147 57.6652 196.317 0.249449 153.486 34.65Z" fill="#283A84"/>
<path d="M188.219 23.8509C176.268 21.7497 164.511 25.268 153.243 34.3568C153.096 34.5034 153.047 34.6989 153.145 34.8943C153.243 35.0898 153.486 35.1386 153.682 35.0897C153.925 34.992 177.487 25.0725 193.537 31.8158C209.635 38.5591 221.342 63.2357 223.733 74.3279C224.172 76.2825 224.708 77.1621 225.44 77.1621C228.025 77.1132 230.757 62.3072 231.538 57.8117C231.538 57.714 231.538 57.6163 231.489 57.5186C231.294 57.1277 213.586 28.3464 188.219 23.8509ZM225.391 76.2337C225.391 76.2337 224.952 76.1848 224.464 74.0348C222.025 62.796 210.171 37.7773 193.78 30.9363C189.634 29.1771 185 28.5419 180.365 28.5419C170.414 28.5419 160.56 31.5715 155.974 33.1841C166.365 25.5612 177.146 22.6782 188.024 24.6328C212.122 28.884 229.294 55.6128 230.66 57.714C228.708 69.1483 226.416 76.2337 225.391 76.2337Z" fill="#283A84"/>
<path d="M162.999 15.4463C134.364 25.3658 128.071 48.4788 126.071 64.3597C124.071 80.2407 133.291 62.8938 133.291 62.8938C133.291 62.8938 134.169 52.2413 140.852 45.0093C147.535 37.7774 163.536 23.167 191.634 28.591C219.733 34.0149 227.294 61.6722 227.294 61.6722L234.465 58.5448C234.465 58.5448 230.367 42.8593 220.806 32.4023C211.245 21.9453 191.683 5.52687 162.999 15.4463Z" fill="#504566"/>
<path d="M162.902 15.0553C141.047 22.6293 128.9 38.7546 125.681 64.3107C125.095 68.8551 125.388 71.054 126.559 71.4449C126.657 71.4938 126.754 71.4937 126.852 71.4937C129.047 71.4937 132.559 65.1414 133.632 63.138C133.681 63.0891 133.681 63.0402 133.681 62.9914C133.681 62.8936 134.657 52.3878 141.145 45.4002C154.657 30.7408 171.634 25.268 191.537 29.1283C219.05 34.4056 226.806 61.6232 226.855 61.9164C226.904 62.0141 226.952 62.1118 227.099 62.1607C227.196 62.2096 227.343 62.2096 227.44 62.1607L234.611 59.0333C234.806 58.9356 234.904 58.7401 234.855 58.5447C234.806 58.3981 230.611 42.6149 221.099 32.2068C204.269 13.6383 184.122 7.72563 162.902 15.0553ZM227.587 61.1345C226.416 57.4697 217.781 33.2329 191.732 28.1999C171.487 24.2907 154.267 29.8612 140.559 44.7649C134.218 51.6548 132.998 61.7209 132.901 62.796C130.754 66.8517 127.827 70.9563 126.852 70.6143C126.657 70.5654 125.827 69.9789 126.559 64.4084C129.681 39.1943 141.681 23.3134 163.194 15.8372C169.292 13.736 175.048 12.8076 180.366 12.8076C198.122 12.8076 211.635 22.9225 220.562 32.6954C229.148 42.1262 233.343 55.9549 234.026 58.3492L227.587 61.1345Z" fill="#504566"/>
<path d="M229.782 65.3369C223.001 67.5358 220.318 78.0417 223.83 88.7919C227.342 99.4932 235.684 106.383 242.465 104.184C249.246 101.985 251.929 91.4794 248.416 80.7292C244.904 69.9791 236.562 63.0892 229.782 65.3369Z" fill="#191446"/>
<path d="M240.562 67.829C236.953 64.8482 233.05 63.7732 229.635 64.8971C226.221 66.021 223.684 69.1483 222.513 73.7416C221.391 78.2371 221.684 83.6122 223.391 88.8896C225.099 94.1669 228.025 98.6625 231.587 101.643C234.27 103.842 237.099 105.015 239.733 105.015C240.66 105.015 241.636 104.868 242.514 104.575C249.49 102.278 252.319 91.5283 248.709 80.6315C247.05 75.3053 244.172 70.8097 240.562 67.829ZM242.319 103.744C239.197 104.77 235.587 103.793 232.172 100.959C228.708 98.1249 225.879 93.7271 224.22 88.5963C222.562 83.4656 222.22 78.2859 223.342 73.937C224.416 69.6369 226.757 66.754 229.879 65.7279C230.708 65.4836 231.538 65.3369 232.416 65.3369C234.904 65.3369 237.538 66.412 240.026 68.5131C243.489 71.3473 246.319 75.7451 247.977 80.8759C251.392 91.3328 248.855 101.594 242.319 103.744Z" fill="#191446"/>
<path d="M235.148 63.5778C228.367 65.7767 225.684 76.2825 229.196 87.0327C232.709 97.7829 241.05 104.624 247.831 102.425C254.612 100.226 257.295 89.7203 253.783 78.9701C250.27 68.2199 241.929 61.33 235.148 63.5778Z" fill="#924260"/>
<path d="M245.928 66.0699C242.319 63.0892 238.416 62.0142 235.001 63.1381C228.025 65.4347 225.196 76.1849 228.806 87.0816C230.513 92.359 233.44 96.8545 237.001 99.8352C239.684 102.034 242.514 103.207 245.148 103.207C246.124 103.207 247.05 103.06 247.928 102.767C251.343 101.643 253.88 98.5159 255.051 93.9227C256.173 89.4271 255.88 84.052 254.173 78.7747C252.416 73.5462 249.538 69.0507 245.928 66.0699ZM254.221 93.776C253.148 98.0761 250.807 100.959 247.685 101.985C244.562 103.011 240.953 102.034 237.538 99.2C234.074 96.3659 231.245 91.9681 229.586 86.8373C226.172 76.3803 228.708 66.0698 235.245 63.9198C236.074 63.6755 236.904 63.529 237.782 63.529C240.27 63.529 242.904 64.604 245.392 66.7052C248.855 69.5393 251.685 73.937 253.343 79.0678C255.002 84.1986 255.343 89.4271 254.221 93.776Z" fill="#924260"/>
<path d="M267.978 114.69C262.759 117.133 255.197 122.557 257.929 123.534C281.393 132.086 302.565 108.386 300.76 105.601C298.857 102.865 273.149 112.247 267.978 114.69Z" fill="#191446"/>
<path d="M267.783 114.299C263.929 116.107 256.807 120.652 256.905 122.899C256.905 123.192 257.051 123.681 257.734 123.925C261.149 125.196 264.71 125.782 268.32 125.782C273.198 125.782 278.174 124.658 283.101 122.411C290.418 119.088 296.126 113.957 299.004 110.292C300.077 108.924 301.736 106.481 301.004 105.406C298.809 102.034 271.1 112.784 267.783 114.299ZM298.37 109.804C291.735 118.257 274.954 129.349 258.027 123.192C257.734 123.095 257.734 122.948 257.734 122.899C257.685 121.58 263.198 117.426 268.125 115.13C273.783 112.491 293.491 105.552 299.004 105.552C299.735 105.552 300.174 105.65 300.37 105.943C300.565 106.139 300.174 107.458 298.37 109.804Z" fill="#504566"/>
<path d="M248.123 103.402C248.123 103.402 252.855 114.641 265.392 114.641C266.758 114.641 269.441 128.177 269.441 128.177L301.345 115.325C300.515 109.217 295.686 97.05 291.491 91.6261C287.295 86.2021 269.197 63.871 261.099 61.4278C253.002 58.9846 241.245 56.1504 234.465 58.5937C227.733 61.0369 219.196 67.7802 215.537 69.8325C211.878 71.8848 217.683 77.6996 224.025 74.1814C229.538 71.1029 234.562 68.2688 238.709 69.7348C240.904 69.3927 243.782 69.637 242.562 69.5882C241.733 69.5393 240.709 69.9302 239.928 70.3211C240.123 70.4188 240.318 70.5166 240.465 70.6631C240.465 70.6631 215.683 84.3941 224.952 94.5579C228.708 88.3033 245.001 79.1656 245.001 79.1656C245.001 79.1656 229.977 88.9873 225.928 95.4863C226.074 95.6329 226.269 95.7794 226.415 95.926C226.415 95.926 224.952 100.91 230.855 103.011C231.05 101.545 231.44 99.3954 232.269 98.5159C233.099 97.6363 237.879 94.1181 241.635 91.4305C244.172 89.5737 246.221 88.1566 246.221 88.1566C246.221 88.1566 244.172 89.6226 241.635 91.4305C237.879 94.2158 233.05 98.125 232.464 100.275C232.074 101.643 231.928 102.621 231.879 103.354C232.123 103.402 232.318 103.5 232.611 103.549C232.611 103.549 233.147 110.585 240.026 109.119C246.855 107.654 246.123 105.65 245.587 103.891C243.684 103.256 240.952 103.744 241.928 103.5C243.148 103.158 247.684 102.034 247.684 102.034C247.684 102.034 247.636 102.572 247.587 103.305C247.977 103.305 248.123 103.402 248.123 103.402Z" fill="#F9C09D"/>
<path d="M247.538 103.598C247.636 103.647 247.733 103.647 247.782 103.696C248.416 105.064 253.49 115.032 265.295 115.032C265.295 115.032 265.295 115.032 265.344 115.032C266.124 115.521 267.832 122.117 269.051 128.226C269.1 128.372 269.149 128.47 269.246 128.519C269.295 128.568 269.393 128.568 269.441 128.568C269.49 128.568 269.539 128.568 269.588 128.519L301.491 115.667C301.686 115.619 301.784 115.423 301.735 115.228C300.955 109.217 296.174 97.05 291.784 91.3328C291.588 91.0397 270.368 63.7733 261.197 61.0369C248.611 57.2743 239.587 56.297 234.318 58.2027C229.635 59.913 224.025 63.6756 219.976 66.4609C218.123 67.7314 216.464 68.8552 215.342 69.4905C214.025 70.2234 213.635 71.5916 214.366 72.911C215.586 75.1587 219.83 77.0155 224.269 74.5723L224.611 74.3769C229.83 71.4939 234.757 68.7575 238.66 70.1257C238.709 70.1746 238.806 70.1746 238.855 70.1257C239.148 70.0769 239.392 70.0768 239.684 70.0279C239.636 70.0768 239.587 70.1745 239.587 70.2722C239.587 70.4188 239.636 70.5166 239.733 70.6144C236.709 72.3735 223.977 80.2407 222.659 88.2056C222.269 90.6488 222.952 92.8477 224.708 94.8023C224.806 94.9 224.952 94.9488 225.05 94.9488C225.196 94.9488 225.294 94.8511 225.391 94.7534C226.903 92.2613 230.416 89.2805 234.123 86.6418C230.66 89.476 227.294 92.6034 225.635 95.2909C225.538 95.4864 225.538 95.6818 225.733 95.8284L225.879 95.975C225.928 96.0238 225.977 96.0727 226.025 96.1216C225.83 97.2455 225.391 101.546 230.806 103.451C230.904 103.5 231.05 103.5 231.147 103.402C231.245 103.353 231.343 103.207 231.343 103.109C231.587 101.008 232.074 99.4444 232.66 98.8091C232.757 98.6625 233.001 98.4671 233.294 98.2228C232.66 99.0046 232.269 99.6399 232.123 100.177C231.782 101.399 231.587 102.425 231.538 103.354C231.538 103.549 231.684 103.744 231.879 103.793L232.123 103.842C232.172 103.842 232.269 103.891 232.318 103.891C232.465 104.771 232.952 107.214 234.904 108.68C236.27 109.706 238.075 109.999 240.221 109.51C243.538 108.777 245.392 107.898 246.124 106.676C246.709 105.65 246.368 104.624 246.124 103.744C246.075 103.598 245.977 103.5 245.88 103.451C245.538 103.305 245.148 103.256 244.758 103.207C245.733 102.963 246.758 102.669 247.392 102.523C247.392 102.718 247.343 102.963 247.343 103.207C247.294 103.402 247.392 103.549 247.538 103.598ZM241.928 103.06C241.733 103.109 241.343 103.207 241.44 103.598C241.489 103.989 241.831 103.989 242.27 103.94C242.953 103.94 244.319 103.842 245.392 104.184C245.636 104.917 245.782 105.601 245.441 106.237C244.855 107.214 243.099 107.996 240.123 108.68C238.221 109.071 236.66 108.875 235.489 107.996C233.489 106.481 233.196 103.549 233.196 103.549C233.196 103.354 233.05 103.207 232.855 103.158C232.757 103.109 232.611 103.109 232.513 103.06C232.562 102.327 232.757 101.399 233.05 100.422C233.489 98.858 236.709 95.7795 242.075 91.8215C244.611 90.0135 246.66 88.5476 246.66 88.5476C246.855 88.401 246.904 88.1567 246.758 87.9612C246.611 87.7658 246.368 87.7168 246.172 87.8634C246.172 87.8634 244.075 89.2806 241.538 91.1374C235.928 95.1443 232.757 97.5386 232.074 98.2716C231.294 99.1511 230.855 100.959 230.611 102.474C225.733 100.471 226.855 96.2681 226.903 96.0727C226.952 95.9261 226.903 95.7307 226.757 95.6329C226.66 95.5841 226.611 95.4863 226.513 95.4374C230.708 89.085 245.099 79.6054 245.246 79.5077C245.441 79.3611 245.489 79.1168 245.392 78.9213C245.294 78.7259 245.002 78.677 244.806 78.7747C244.172 79.1168 229.196 87.5703 224.952 93.825C223.635 92.1636 223.098 90.3555 223.44 88.3521C224.855 79.8497 240.562 71.0541 240.709 71.0052C240.855 70.9563 240.904 70.8098 240.904 70.6632C240.904 70.5654 240.855 70.4678 240.806 70.37C241.489 70.0769 242.123 69.9302 242.562 69.9791C242.904 69.9791 243.099 70.0279 243.245 69.7836C243.343 69.637 243.294 69.4904 243.245 69.3438C243.197 69.295 243.05 69.2461 242.855 69.1972V69.1484C242.806 69.1484 242.758 69.1484 242.611 69.1484C242.562 69.1484 242.563 69.1484 242.514 69.1484C241.392 69.0507 239.294 69.2461 238.757 69.2949C234.513 67.8779 229.489 70.6632 224.123 73.6439L223.781 73.8394C219.83 76.0383 216.123 74.4257 215.049 72.52C214.757 71.9825 214.415 70.9563 215.684 70.2722C216.854 69.637 218.464 68.5131 220.367 67.2427C224.416 64.5062 229.928 60.7437 234.513 59.0823C239.587 57.2255 248.465 58.2028 260.856 61.9165C268.271 64.1642 285.149 84.3453 291.052 91.9681C295.247 97.3432 299.881 109.217 300.76 115.13L269.637 127.688C268.368 121.482 266.661 114.299 265.295 114.299C253.148 114.299 248.416 103.451 248.368 103.305C248.319 103.207 248.27 103.109 248.172 103.06C248.172 103.06 248.124 103.011 248.026 103.011C248.026 102.474 248.075 102.083 248.075 102.083C248.075 101.936 248.026 101.79 247.929 101.692C247.831 101.594 247.685 101.546 247.538 101.594C247.685 101.546 243.148 102.718 241.928 103.06Z" fill="#F9C09D"/>
<path d="M226.025 95.4863C230.025 88.9873 245.099 79.1656 245.099 79.1656C245.099 79.1656 228.806 88.3032 225.049 94.5579C225.342 94.8511 225.635 95.1931 226.025 95.4863Z" fill="#DA6249"/>
<path d="M244.855 78.7747C244.172 79.1656 228.416 88.059 224.659 94.3136C224.562 94.4602 224.562 94.6557 224.708 94.8023C225.001 95.1443 225.342 95.4375 225.732 95.7796C225.83 95.8284 225.928 95.8773 226.025 95.8773H226.074C226.172 95.8773 226.318 95.7795 226.367 95.6818C230.269 89.3294 245.148 79.5565 245.294 79.4588C245.489 79.3122 245.538 79.0679 245.44 78.8724C245.294 78.7258 245.05 78.677 244.855 78.7747ZM225.928 94.8511C225.781 94.7534 225.684 94.6068 225.586 94.5091C227.147 92.0658 230.611 89.2316 234.172 86.6418C230.855 89.3294 227.635 92.3101 225.928 94.8511Z" fill="#DA6249"/>
<path d="M246.368 88.1566C246.368 88.1566 244.319 89.5248 241.782 91.4305C242.612 90.8441 243.392 90.2578 244.075 89.7692C245.441 88.7919 246.368 88.1566 246.368 88.1566Z" fill="#DA6249"/>
<path d="M246.124 87.8146C246.124 87.8146 244.026 89.2316 241.489 91.0885C241.294 91.2351 241.245 91.4794 241.392 91.6748C241.489 91.7725 241.587 91.8703 241.733 91.8703C241.831 91.8703 241.928 91.8214 241.977 91.7725L244.27 90.1601C245.636 89.1828 246.563 88.5475 246.563 88.5475C246.758 88.4009 246.807 88.1566 246.66 87.9612C246.611 87.7169 246.319 87.668 246.124 87.8146Z" fill="#DA6249"/>
<path d="M232.026 103.353C232.075 102.621 232.221 101.643 232.611 100.275C233.197 98.125 238.026 94.2158 241.782 91.4305C238.026 94.118 233.197 97.6363 232.416 98.5158C231.587 99.4443 231.197 101.545 231.001 103.011C231.294 103.158 231.636 103.256 232.026 103.353Z" fill="#DA6249"/>
<path d="M241.538 91.0884C235.928 95.0953 232.757 97.4897 232.074 98.2227C231.196 99.2 230.757 101.35 230.562 102.963C230.513 103.158 230.66 103.353 230.855 103.402C231.196 103.5 231.538 103.647 231.928 103.744C231.977 103.744 231.977 103.744 232.026 103.744C232.123 103.744 232.221 103.695 232.27 103.647C232.367 103.549 232.416 103.451 232.465 103.353C232.513 102.523 232.709 101.545 233.001 100.373C233.44 98.809 236.66 95.7305 242.026 91.7725C242.221 91.6259 242.27 91.3816 242.124 91.1861C241.977 90.9907 241.733 90.9418 241.538 91.0884ZM232.172 100.177C231.879 101.155 231.733 102.034 231.635 102.816C231.587 102.816 231.489 102.767 231.44 102.767C231.684 100.812 232.172 99.4443 232.709 98.809C232.806 98.6624 233.05 98.467 233.343 98.2227C232.709 98.9556 232.318 99.6397 232.172 100.177Z" fill="#DA6249"/>
<path d="M247.734 103.207C247.734 102.523 247.831 101.936 247.831 101.936C247.831 101.936 243.294 103.109 242.075 103.402C241.099 103.695 243.88 103.158 245.734 103.793V103.744C245.294 102.425 246.904 102.914 247.734 103.207Z" fill="#DA6249"/>
<path d="M247.538 103.598C247.685 103.647 247.831 103.647 247.929 103.549C248.026 103.451 248.124 103.353 248.124 103.207C248.124 102.523 248.221 101.985 248.221 101.985C248.221 101.839 248.173 101.692 248.075 101.594C247.978 101.497 247.831 101.448 247.685 101.497C247.685 101.497 243.148 102.669 241.929 102.963C241.733 103.011 241.343 103.109 241.441 103.5C241.489 103.891 241.831 103.891 242.27 103.842C243.002 103.793 244.465 103.744 245.587 104.135C245.636 104.135 245.636 104.135 245.685 104.135C245.782 104.135 245.929 104.086 245.977 103.989C246.075 103.891 246.124 103.695 246.075 103.549C245.977 103.305 246.026 103.207 246.026 103.207C246.124 103.305 246.514 103.207 247.538 103.598ZM247.295 102.523C247.295 102.572 247.295 102.62 247.295 102.62C247.197 102.62 247.148 102.572 247.051 102.572C247.148 102.572 247.246 102.523 247.295 102.523ZM245.246 103.256C245.099 103.207 244.904 103.207 244.709 103.158C244.904 103.109 245.099 103.06 245.294 103.011C245.246 103.109 245.246 103.207 245.246 103.256Z" fill="#DA6249"/>
<path d="M240.026 70.2722C240.855 69.8812 241.879 69.4903 242.66 69.5392C243.831 69.5881 241.001 69.3438 238.806 69.6858C239.196 69.8324 239.635 70.0278 240.026 70.2722Z" fill="#DA6249"/>
<path d="M242.904 69.1485C242.855 69.1485 242.806 69.1485 242.66 69.1485C242.611 69.1485 242.611 69.1485 242.562 69.1485C241.343 69.0507 238.904 69.2461 238.709 69.295C238.514 69.3438 238.367 69.4904 238.367 69.6859C238.367 69.8814 238.465 70.0769 238.66 70.1257C239.001 70.2723 239.392 70.4189 239.831 70.6632C239.879 70.712 239.977 70.7121 240.026 70.7121C240.075 70.7121 240.172 70.712 240.221 70.6632C241.245 70.1745 242.075 69.9303 242.66 69.9791C243.001 69.9791 243.197 70.0279 243.343 69.7836C243.44 69.637 243.392 69.4905 243.343 69.3439C243.245 69.2461 243.099 69.1973 242.904 69.1485Z" fill="#DA6249"/>
<path d="M166.609 113.419C166.609 113.419 160.414 119.625 160.17 124.267C159.926 128.909 167.39 159.547 168.414 155.785C169.146 153.146 168.853 138.878 179.146 142.103C185.293 144.009 186.61 145.572 186.61 145.572C186.61 145.572 173.048 119.381 174.073 115.227C175.097 111.074 166.609 113.419 166.609 113.419Z" fill="#2893D0"/>
<path d="M174.024 113.175C172.268 111.465 167.097 112.882 166.511 113.029C166.463 113.029 166.365 113.078 166.316 113.126C166.072 113.371 160.023 119.528 159.779 124.267C159.633 127.688 165.828 156.176 168.121 156.567C168.17 156.567 168.17 156.567 168.219 156.567C168.414 156.567 168.707 156.469 168.853 155.932C168.999 155.492 169.048 154.759 169.194 153.83C169.585 150.508 170.316 144.986 173.536 142.885C174.999 141.956 176.853 141.81 179.097 142.543C184.951 144.4 186.366 145.866 186.366 145.866C186.512 146.012 186.756 146.061 186.902 145.914C187.097 145.817 187.146 145.572 187.049 145.377C183.292 138.145 173.731 118.599 174.512 115.325C174.707 114.446 174.56 113.713 174.024 113.175ZM185.439 144.253C184.317 143.618 182.414 142.738 179.243 141.712C176.756 140.93 174.658 141.077 172.999 142.152C169.438 144.448 168.707 150.215 168.316 153.684C168.219 154.368 168.17 155.003 168.072 155.443C166.17 152.413 160.414 128.519 160.609 124.267C160.804 120.114 166.121 114.495 166.853 113.762C168.414 113.371 172.268 112.638 173.438 113.713C173.731 114.006 173.829 114.446 173.682 115.081C172.755 118.844 182.561 138.536 185.439 144.253Z" fill="#2893D0"/>
<path d="M172.366 48.1854C167.488 73.4972 150.755 79.361 147.731 80.2406C149.146 86.0554 158.17 119.967 179.244 120.163C185.342 120.212 190.171 119.186 194.074 117.622C206.025 109.315 205.684 85.1758 203.538 75.4518C200.074 73.7416 195.489 71.1517 190.806 67.4869C182.805 64.8971 172.366 48.1854 172.366 48.1854Z" fill="#F9C09D"/>
<path d="M203.733 75.0609C199.098 72.7643 194.854 70.1256 191.098 67.1449C191.049 67.096 191 67.096 190.952 67.096C183.147 64.6039 172.854 48.1366 172.756 47.99C172.658 47.8434 172.512 47.7456 172.317 47.7945C172.171 47.8434 172.024 47.9412 171.975 48.1367C167.195 73.1064 150.853 78.9212 147.633 79.8496C147.438 79.8985 147.292 80.1428 147.341 80.3383C148.023 83.1724 150.658 93.2384 155.731 102.523C162.268 114.446 170.17 120.505 179.244 120.554C179.39 120.554 179.537 120.554 179.634 120.554C185.098 120.554 190.025 119.674 194.318 117.915C206.025 109.803 206.367 86.1531 203.976 75.3052C203.928 75.2075 203.83 75.1098 203.733 75.0609ZM193.927 117.182C189.732 118.892 184.708 119.772 179.244 119.674C170.512 119.625 162.853 113.664 156.463 102.083C151.633 93.2874 149.048 83.7588 148.219 80.4849C152.219 79.2633 167.634 72.9597 172.561 49.2604C174.854 52.7787 183.488 65.4834 190.561 67.8289C194.318 70.7608 198.513 73.4484 203.098 75.6962C205.489 86.4463 205.098 109.364 193.927 117.182Z" fill="#F9C09D"/>
<path d="M194.073 117.573C204.952 113.175 208.318 104.233 209.488 101.155C211.098 97.0011 212.025 81.853 209.488 78.2371C209.635 78.0905 207.196 77.2109 203.537 75.4029C205.683 85.1269 206.025 109.266 194.073 117.573Z" fill="#F9AE82"/>
<path d="M193.829 117.231C193.634 117.329 193.586 117.573 193.683 117.768C193.781 117.915 193.927 118.013 194.073 118.013C194.122 118.013 194.171 118.013 194.22 117.964C205.147 113.517 208.562 104.77 209.83 101.448L209.879 101.301C211.488 97.1476 212.513 82.0974 209.879 78.0905C209.781 77.7973 209.537 77.6996 207.927 76.9667C206.854 76.478 205.44 75.8428 203.683 75.0121C203.537 74.9632 203.342 74.9632 203.244 75.0609C203.098 75.1586 203.049 75.3053 203.098 75.5007C205.488 86.1532 205.196 109.315 193.829 117.231ZM204.122 76.1848C205.537 76.8689 206.708 77.4064 207.635 77.7974C208.269 78.0905 208.903 78.3837 209.147 78.4814V78.5303C211.586 81.9997 210.61 97.1965 209.098 101.057L209.049 101.203C207.927 104.086 205.098 111.367 196.756 115.912C205.781 106.579 206.171 86.4952 204.122 76.1848Z" fill="#F9AE82"/>
<path d="M147.536 79.3609C147.536 79.3609 147.584 79.703 147.731 80.2405C150.804 79.361 167.536 73.4972 172.366 48.1854C172.366 48.1854 182.756 64.897 190.805 67.4869C183.39 61.6231 175.878 53.0231 172.561 40.5626C172.561 40.5626 172.561 72.6665 147.536 79.3609Z" fill="#F9AE82"/>
<path d="M172.951 40.4161C172.902 40.2206 172.707 40.074 172.512 40.1229C172.317 40.1717 172.122 40.3184 172.122 40.5627C172.122 40.8559 171.829 72.4223 147.389 78.9701C147.194 79.019 147.048 79.2633 147.096 79.4588C147.096 79.4588 147.145 79.8008 147.292 80.3383C147.34 80.4361 147.389 80.5338 147.487 80.5827C147.535 80.6315 147.633 80.6316 147.682 80.6316C147.731 80.6316 147.779 80.6316 147.779 80.6316C151.048 79.7031 167.39 73.8882 172.512 49.3094C174.805 52.8277 183.488 65.6301 190.61 67.8779C190.805 67.9268 191 67.8291 191.098 67.6825C191.195 67.487 191.147 67.2915 191 67.1449C181.829 59.8153 175.78 50.8731 172.951 40.4161ZM148.023 79.6543C148.316 79.5566 148.609 79.4588 148.901 79.361C148.609 79.5076 148.267 79.6054 148.023 79.6543ZM172.756 47.9412C172.658 47.7946 172.561 47.7458 172.414 47.7458C172.365 47.7458 172.365 47.7458 172.317 47.7458C172.609 45.8889 172.804 44.2276 172.902 43.0059C175.634 51.4595 180.561 58.9357 187.683 65.2881C180.512 60.3528 172.853 48.0878 172.756 47.9412Z" fill="#F9AE82"/>
<path d="M179.878 69.7836C178.024 70.4677 176.414 70.3699 174.902 69.5392C170.902 67.2915 169.438 60.2551 169.438 60.2062C169.341 59.7664 168.902 59.4732 168.463 59.522C168.024 59.6198 167.731 60.0595 167.78 60.4993C167.828 60.8414 169.39 68.3177 174.073 70.9564C175.146 71.5428 176.268 71.8848 177.487 71.8848C178.414 71.8848 179.439 71.6894 180.463 71.3473C180.902 71.2007 181.146 70.712 180.951 70.2722C180.805 69.8324 180.317 69.637 179.878 69.7836Z" fill="#F9AE82"/>
<path d="M189.146 68.7573C186.171 69.5391 183.488 69.197 181.097 67.7311C174.512 63.6265 172.317 52.1922 172.268 52.0945C172.17 51.6547 171.731 51.3615 171.292 51.4104C170.853 51.5081 170.561 51.9479 170.609 52.3877C170.707 52.8763 173 64.6527 180.171 69.1482C181.976 70.2721 183.976 70.8585 186.073 70.8585C187.195 70.8585 188.366 70.7119 189.537 70.3698C189.976 70.2721 190.268 69.7834 190.122 69.3436C190.073 68.9038 189.586 68.6107 189.146 68.7573Z" fill="#F9AE82"/>
<path d="M172.414 38.999C171.926 38.999 171.585 39.39 171.585 39.8298C171.585 40.6604 171.585 60.4994 181.097 67.4382C183.244 69.0018 185.683 69.7836 188.366 69.7836C190.122 69.7836 191.976 69.4415 193.976 68.8063C194.415 68.6597 194.659 68.1711 194.513 67.7313C194.366 67.2915 193.878 67.0473 193.439 67.1938C188.951 68.6598 185.146 68.3177 182.073 66.0699C173.292 59.6687 173.292 40.0252 173.292 39.8298C173.244 39.39 172.853 38.999 172.414 38.999Z" fill="#4461AB"/>
<path d="M183.341 67.2915C180.805 69.0017 178.609 69.3926 176.804 68.5131C171.146 65.7278 170.17 51.6059 170.17 51.4593C170.121 51.0195 169.78 50.6287 169.292 50.6775C168.853 50.7264 168.463 51.1173 168.511 51.5571C168.56 52.1924 169.536 66.7539 176.073 69.979C176.951 70.4188 177.878 70.6143 178.805 70.6143C180.512 70.6143 182.317 69.979 184.268 68.6597C184.658 68.4154 184.756 67.8778 184.512 67.4869C184.219 67.1448 183.683 67.0471 183.341 67.2915Z" fill="#4461AB"/>
<path d="M170.658 96.0238C170.121 97.05 170.463 97.7341 170.706 98.0761C171.341 98.9068 172.804 99.1511 174.219 99.1511C175.536 99.1511 176.804 98.9556 177.438 98.8579C177.877 98.7602 178.219 98.3204 178.121 97.8806C178.024 97.4408 177.585 97.0988 177.146 97.1965C174.609 97.6363 172.316 97.4897 172.072 97.0988C172.072 97.0988 172.072 97.0011 172.17 96.8056C172.414 96.3658 172.755 95.8284 173.146 95.2909C175.194 92.359 178.268 87.9611 171.487 80.778C171.194 80.436 170.658 80.4361 170.316 80.7292C169.975 81.0713 169.975 81.5599 170.267 81.9019C176.121 88.1077 173.731 91.5283 171.78 94.3136C171.341 94.9 170.902 95.4863 170.658 96.0238Z" fill="#62392C"/>
<path d="M160.608 74.7678C160.169 74.9633 159.974 75.4518 160.169 75.8916C160.316 76.2336 160.608 76.4291 160.95 76.4291C161.047 76.4291 161.194 76.4291 161.291 76.3802C162.267 75.9893 164.072 75.2564 164.901 75.3542C165.389 75.3053 165.731 75.0121 165.779 74.5235C165.779 74.0837 165.438 73.6928 164.95 73.6439C163.487 73.5462 160.901 74.6701 160.608 74.7678Z" fill="#62392C"/>
<path d="M184.219 71.5916C183.78 71.7382 183.536 72.1779 183.634 72.6177C183.731 72.9598 184.073 73.2041 184.414 73.2041C184.512 73.2041 184.561 73.2041 184.658 73.1553C185.634 72.8621 187.439 72.4711 188.219 72.6177C188.658 72.7154 189.097 72.4222 189.195 71.9824C189.292 71.5427 189 71.1029 188.561 71.0052C187.146 70.712 184.512 71.4939 184.219 71.5916Z" fill="#62392C"/>
<path d="M188.902 78.6281C185.487 79.361 183.585 83.9054 184.609 88.743C185.633 93.5806 189.243 96.9522 192.658 96.2193C196.073 95.4863 197.975 90.9419 196.951 86.1044C195.927 81.2668 192.268 77.8951 188.902 78.6281Z" fill="white"/>
<path d="M188.805 78.2371C187 78.628 185.536 79.9473 184.707 81.9996C183.878 84.0031 183.682 86.4463 184.219 88.8407C185.195 93.4339 188.414 96.7568 191.732 96.7568C192.073 96.7568 192.414 96.7078 192.756 96.659C194.561 96.2681 196.024 94.9488 196.854 92.8964C197.683 90.893 197.878 88.4498 197.341 86.0554C196.805 83.6122 195.683 81.4622 194.073 79.9963C192.463 78.4815 190.561 77.8462 188.805 78.2371ZM196.073 92.5544C195.341 94.3135 194.073 95.4863 192.561 95.8283C189.39 96.5124 186.024 93.2874 185 88.6942C184.512 86.4464 184.658 84.1498 185.439 82.3418C186.17 80.5827 187.439 79.4098 188.951 79.0678C189.244 79.0189 189.536 78.9701 189.829 78.9701C191.097 78.9701 192.366 79.5565 193.488 80.5826C194.951 81.9508 196.024 83.9054 196.512 86.202C197 88.4498 196.854 90.6976 196.073 92.5544Z" fill="white"/>
<path d="M161.048 81.0713C157.633 81.8043 155.731 86.3487 156.755 91.1862C157.779 96.0238 161.389 99.3955 164.804 98.6625C168.219 97.9296 170.121 93.3852 169.097 88.5476C168.073 83.71 164.463 80.3384 161.048 81.0713Z" fill="white"/>
<path d="M160.95 80.6803C159.145 81.0712 157.682 82.3906 156.852 84.4429C156.023 86.4463 155.828 88.8895 156.365 91.2839C156.901 93.7271 158.023 95.8772 159.633 97.3431C160.95 98.5648 162.414 99.2 163.877 99.2C164.219 99.2 164.56 99.1511 164.901 99.1022C166.706 98.7113 168.17 97.392 168.999 95.3397C169.828 93.3362 170.024 90.893 169.487 88.4986C168.95 86.0554 167.828 83.9054 166.219 82.4395C164.609 80.8758 162.755 80.2894 160.95 80.6803ZM168.219 94.9976C167.487 96.7567 166.219 97.9295 164.706 98.2715C163.194 98.5647 161.584 98.0272 160.17 96.7079C158.706 95.3397 157.633 93.3851 157.145 91.0885C156.657 88.8407 156.804 86.5441 157.584 84.7361C158.316 82.977 159.584 81.8042 161.096 81.4622C161.389 81.4133 161.682 81.3645 161.975 81.3645C163.243 81.3645 164.511 81.9508 165.633 82.9769C167.097 84.3451 168.17 86.2997 168.658 88.5963C169.145 90.893 168.999 93.1408 168.219 94.9976Z" fill="white"/>
<path d="M162.121 82.1951C159.975 83.0258 159.145 86.0554 160.219 88.8895C161.341 91.7725 163.975 93.434 166.121 92.6033C168.268 91.7726 169.097 88.7429 168.024 85.9087C166.951 83.0257 164.316 81.3644 162.121 82.1951Z" fill="#191446"/>
<path d="M165.731 82.3419C164.511 81.5601 163.194 81.4135 162.023 81.8533C160.853 82.293 159.975 83.3191 159.584 84.7362C159.194 86.1044 159.292 87.6681 159.877 89.134C160.462 90.5999 161.438 91.8216 162.609 92.6034C163.389 93.0921 164.219 93.3364 164.999 93.3364C165.438 93.3364 165.877 93.2387 166.316 93.0921C168.658 92.1637 169.633 88.9385 168.463 85.8112C167.877 84.2964 166.902 83.0749 165.731 82.3419ZM166.023 92.2613C165.097 92.6033 164.072 92.4568 163.048 91.8216C162.023 91.1863 161.145 90.1113 160.657 88.792C160.17 87.4726 160.072 86.1044 160.414 84.9316C160.755 83.8077 161.389 82.9771 162.316 82.635C162.658 82.4884 162.999 82.4396 163.34 82.4396C163.975 82.4396 164.658 82.6351 165.292 83.0749C166.316 83.7101 167.194 84.7851 167.682 86.1044C168.658 88.7431 167.926 91.5283 166.023 92.2613Z" fill="#191446"/>
<path d="M189.878 78.9701C187.732 79.8008 186.902 82.8304 187.975 85.6645C189.097 88.5475 191.732 90.2089 193.878 89.3782C196.024 88.5476 196.854 85.518 195.781 82.6838C194.707 79.8497 192.073 78.1394 189.878 78.9701Z" fill="#191446"/>
<path d="M189.731 78.5792C188.561 79.019 187.731 80.0452 187.292 81.4622C186.902 82.8305 187 84.3941 187.585 85.86C188.17 87.326 189.146 88.5475 190.317 89.3294C191.097 89.818 191.927 90.0623 192.707 90.0623C193.146 90.0623 193.585 89.9646 194.024 89.818C196.366 88.8896 197.341 85.6646 196.171 82.5372C195 79.4099 192.122 77.6507 189.731 78.5792ZM193.78 88.9873C192.853 89.3294 191.829 89.1828 190.805 88.5476C189.78 87.9124 188.902 86.8374 188.414 85.518C187.926 84.1987 187.829 82.8304 188.17 81.6577C188.512 80.5338 189.146 79.7031 190.073 79.3611C190.414 79.2145 190.756 79.1656 191.097 79.1656C192.805 79.1656 194.61 80.6316 195.439 82.8305C196.415 85.4692 195.683 88.2544 193.78 88.9873Z" fill="#191446"/>
<path d="M178.121 108.386C177.682 108.289 177.243 108.582 177.146 109.022C177.048 109.461 177.341 109.901 177.78 109.999C178.707 110.194 180.17 110.732 180.56 111.269C180.707 111.514 181 111.611 181.243 111.611C181.39 111.611 181.585 111.563 181.731 111.465C182.122 111.221 182.219 110.683 181.926 110.292C181.048 109.071 178.609 108.484 178.121 108.386Z" fill="#91241E"/>
<path d="M158.316 89.2805C158.316 90.3067 159.145 91.1374 160.17 91.1374C161.194 91.1374 162.023 90.3067 162.023 89.2805C162.023 88.2544 161.194 87.4236 160.17 87.4236C159.145 87.4236 158.316 88.2544 158.316 89.2805Z" fill="white"/>
<path d="M157.926 89.2805C157.926 90.551 158.95 91.5771 160.219 91.5771C161.487 91.5771 162.511 90.551 162.511 89.2805C162.511 88.01 161.487 86.9839 160.219 86.9839C158.95 87.0328 157.926 88.01 157.926 89.2805ZM161.633 89.2805C161.633 90.0623 160.999 90.6975 160.219 90.6975C159.438 90.6975 158.804 90.0623 158.804 89.2805C158.804 88.4987 159.438 87.8634 160.219 87.8634C160.999 87.8634 161.633 88.4987 161.633 89.2805Z" fill="white"/>
<path d="M186.414 86.5441C186.414 87.5702 187.243 88.4009 188.268 88.4009C189.292 88.4009 190.121 87.5702 190.121 86.5441C190.121 85.5179 189.292 84.6872 188.268 84.6872C187.243 84.6872 186.414 85.5179 186.414 86.5441Z" fill="white"/>
<path d="M186.024 86.544C186.024 87.8145 187.048 88.8406 188.317 88.8406C189.585 88.8406 190.609 87.8145 190.609 86.544C190.609 85.2736 189.585 84.2474 188.317 84.2474C187.048 84.2474 186.024 85.2736 186.024 86.544ZM189.731 86.544C189.731 87.3259 189.097 88.01 188.268 88.01C187.487 88.01 186.804 87.3747 186.804 86.544C186.804 85.7622 187.439 85.0781 188.268 85.0781C189.097 85.0781 189.731 85.7133 189.731 86.544Z" fill="white"/>
<path d="M134.803 78.1882C138.706 77.8951 148.316 78.0417 147.731 73.0575C147.145 68.0733 144.706 67.7801 144.706 67.7801C144.706 67.7801 144.755 67.5846 144.755 67.2915C141.73 67.2426 137.438 67.6823 131.047 69.0994C119.096 71.787 116.071 77.9439 116.071 77.9439C116.071 77.9439 118.266 72.1779 131.925 68.3664C138.072 66.6562 142.072 66.0209 144.706 65.8743C144.365 63.5288 142.462 59.9129 133.925 61.0368C121.535 62.6493 116.413 67.0471 113.339 70.9563C110.217 74.8654 105.924 78.3837 104.412 90.6487C102.949 102.914 98.8511 112.247 98.8511 112.247L117.096 123.339C117.096 123.339 136.267 110.341 128.998 94.8999C128.998 94.8999 137.291 92.2123 141.145 92.7498C144.999 93.2384 148.462 88.1565 142.901 85.7133C137.34 83.2701 123.291 84.8827 123.291 84.8827C123.291 84.8827 123.681 84.5406 124.315 84.052C120.803 84.7361 116.754 85.9087 116.754 85.9087C120.852 84.1985 123.73 83.3678 125.681 82.9769C128.267 81.12 132.267 78.3837 134.803 78.1882Z" fill="#F9C09D"/>
<path d="M125.974 83.4168C129.876 80.4849 132.998 78.7746 134.852 78.628C135.291 78.5792 135.779 78.5792 136.316 78.5303C139.926 78.3349 145.389 78.0905 147.438 75.6472C148.072 74.9143 148.316 73.9858 148.218 72.9597C147.731 68.8551 146.023 67.7313 145.243 67.4381C145.243 67.3892 145.243 67.3404 145.243 67.2915C145.243 67.1938 145.194 67.0471 145.145 66.9983C145.048 66.9005 144.95 66.8516 144.852 66.8516C142.706 66.8028 140.169 67.0471 137.242 67.4869C140.267 66.8028 142.804 66.4119 144.804 66.3142C144.901 66.3142 145.048 66.2653 145.096 66.1676C145.194 66.0699 145.194 65.9721 145.194 65.8256C144.852 63.3823 142.901 59.4731 133.925 60.6459C121.193 62.3073 116.071 66.9005 113.047 70.7608C112.656 71.2983 112.217 71.787 111.778 72.3245C108.9 75.6962 105.339 79.8985 104.071 90.6487C102.607 102.669 98.6071 112.051 98.5583 112.1C98.4608 112.296 98.5583 112.54 98.7047 112.638L116.949 123.73C116.998 123.779 117.096 123.779 117.144 123.779C117.242 123.779 117.291 123.73 117.388 123.73C117.583 123.583 136.413 110.585 129.632 95.2419C131.389 94.7044 137.925 92.7987 141.145 93.2384C143.34 93.5316 145.584 92.1146 146.121 90.1112C146.657 88.2054 145.535 86.4464 143.096 85.3713C138.511 83.3679 128.364 84.052 124.657 84.394C124.754 84.2474 124.803 84.1008 124.706 83.9542C124.657 83.8565 124.608 83.8076 124.51 83.7588C124.949 83.6611 125.388 83.5633 125.779 83.4655C125.827 83.4655 125.876 83.4656 125.974 83.4168ZM116.608 85.6157C116.413 85.7134 116.315 85.9088 116.364 86.1531C116.461 86.3486 116.656 86.4951 116.852 86.3974C116.9 86.3974 119.827 85.5179 122.901 84.8827C122.852 84.9804 122.901 85.0781 122.901 85.1758C122.998 85.3224 123.144 85.4201 123.34 85.4201C123.486 85.4201 137.34 83.8565 142.706 86.202C144.755 87.0816 145.682 88.4498 145.243 89.9158C144.852 91.3328 143.145 92.701 141.145 92.4078C137.242 91.9191 129.145 94.4601 128.803 94.6067C128.706 94.6555 128.608 94.7533 128.559 94.851C128.51 94.9487 128.51 95.0953 128.559 95.193C135.194 109.217 119.096 121.433 117.047 122.948L99.3388 112.198C100.071 110.39 103.437 101.692 104.754 90.8441C106.022 80.3383 109.339 76.4291 112.266 72.9597C112.705 72.4222 113.144 71.9336 113.583 71.3961C116.51 67.6824 121.486 63.2357 133.925 61.6232C141.633 60.597 143.682 63.5289 144.17 65.6789C141.096 65.8744 136.95 66.7051 131.779 68.1711C118.071 71.9825 115.73 77.7484 115.681 77.9928C115.583 78.1882 115.681 78.4326 115.925 78.5303C116.12 78.628 116.364 78.5302 116.461 78.3348C116.51 78.2859 119.583 72.3245 131.194 69.6858C136.462 68.4642 140.901 67.8778 144.316 67.8778C144.316 67.9756 144.316 68.0733 144.413 68.1711C144.462 68.2688 144.56 68.3176 144.706 68.3176C144.706 68.3176 146.804 68.6596 147.34 73.204C147.438 73.9858 147.243 74.67 146.755 75.2564C144.95 77.4065 139.486 77.6508 136.267 77.7973C135.73 77.8462 135.242 77.8462 134.803 77.895C132.267 78.0905 128.413 80.6315 125.584 82.7815C123.047 83.1724 120.071 84.1497 116.608 85.6157Z" fill="#F9C09D"/>
<path d="M125.682 83.0748C123.73 83.4657 120.803 84.2964 116.754 86.0066C116.754 86.0066 120.803 84.8339 124.316 84.1498C124.706 83.8566 125.145 83.4657 125.682 83.0748Z" fill="#DA6249"/>
<path d="M125.633 82.6349C123.145 83.1235 120.12 84.1008 116.608 85.5668C116.413 85.6645 116.315 85.86 116.364 86.1043C116.413 86.2998 116.608 86.3974 116.754 86.3974C116.803 86.3974 116.852 86.3974 116.852 86.3974C116.901 86.3974 120.901 85.2248 124.364 84.5407C124.413 84.5407 124.511 84.4917 124.559 84.4428C124.95 84.1497 125.389 83.7588 125.925 83.3679C126.072 83.2701 126.12 83.0258 126.072 82.8792C126.023 82.7326 125.779 82.6349 125.633 82.6349Z" fill="#DA6249"/>
<path d="M116.071 77.9928C116.071 77.9928 119.096 71.836 131.047 69.1484C137.438 67.6825 141.731 67.2915 144.755 67.3403C144.755 66.9983 144.804 66.5097 144.706 65.9722C142.023 66.1188 138.072 66.754 131.925 68.4642C118.266 72.2268 116.071 77.9928 116.071 77.9928Z" fill="#DA6249"/>
<path d="M144.706 65.5323C141.633 65.6789 137.291 66.5097 131.828 68.0245C118.12 71.8359 115.779 77.6018 115.73 77.8462C115.632 78.0416 115.73 78.286 115.974 78.3837C116.022 78.4326 116.071 78.4326 116.12 78.4326C116.266 78.4326 116.413 78.3349 116.51 78.1883C116.559 78.1394 119.632 72.1779 131.242 69.5392C136.755 68.2687 141.34 67.6824 144.853 67.7312C145.097 67.7312 145.243 67.5358 145.292 67.3403C145.34 66.8517 145.292 66.363 145.243 65.8744C145.097 65.6789 144.901 65.5323 144.706 65.5323ZM144.365 66.9006C142.316 66.9006 139.926 67.0961 137.194 67.5358C140.023 66.9006 142.414 66.5097 144.365 66.4119C144.365 66.5585 144.365 66.754 144.365 66.9006Z" fill="#DA6249"/>
<path d="M97.7286 181.097C85.4843 203.672 71.1424 256.788 87.6307 253.416C107.192 249.409 122.12 218.82 127.144 209.438C130.51 203.135 132.754 186.227 131.632 173.327C126.266 179.875 108.266 209.927 106.9 219.358C105.875 226.589 97.7773 199.519 97.7286 181.097Z" fill="#2893D0"/>
<path d="M131.779 172.887C131.632 172.839 131.437 172.887 131.339 173.034C125.681 179.924 107.924 209.731 106.558 219.26C106.461 219.846 106.363 220.042 106.363 220.091C104.461 219.358 98.2652 197.32 98.2164 181.097C98.2164 180.901 98.0701 180.755 97.9238 180.706C97.7286 180.657 97.5335 180.755 97.4359 180.901C86.6063 200.838 74.9474 242.226 82.0696 251.852C83.1428 253.27 84.5575 254.002 86.3136 254.002C86.8015 254.002 87.2893 253.954 87.8259 253.856C106.265 250.093 120.461 223.218 126.51 211.735C126.9 210.953 127.291 210.269 127.632 209.634C131.096 203.135 133.291 185.837 132.169 173.278C132.022 173.083 131.925 172.936 131.779 172.887ZM126.803 209.243C126.461 209.878 126.12 210.562 125.681 211.344C119.681 222.729 105.631 249.311 87.5332 253.025C85.3868 253.465 83.777 252.927 82.655 251.364C76.1182 242.519 86.8502 202.988 97.3384 182.758C97.7774 196.098 103.046 220.726 106.265 220.97C107.095 221.019 107.29 219.797 107.339 219.407C108.607 210.513 125.193 182.465 131.291 174.402C132.218 186.716 130.12 203.037 126.803 209.243Z" fill="#2893D0"/>
<path d="M97.7285 181.097C97.7773 199.47 105.875 226.541 106.948 219.309C108.314 209.878 126.315 179.826 131.681 173.278C131.095 166.926 129.73 161.502 127.193 158.863C127.193 158.863 116.363 162.479 104.119 172.203C102.216 173.767 100.021 176.943 97.7285 181.097Z" fill="#4461AB"/>
<path d="M127.047 158.521C126.949 158.57 116.022 162.284 103.875 171.959C101.973 173.474 99.7775 176.503 97.3872 180.95C97.3384 180.999 97.3384 181.097 97.3384 181.146C97.3872 193.948 102.948 220.726 106.314 220.97H106.363C107.144 220.97 107.339 219.797 107.387 219.407C108.705 210.22 126.559 180.266 132.022 173.572C132.071 173.474 132.12 173.376 132.12 173.278C131.681 168.343 130.51 161.746 127.534 158.619C127.388 158.521 127.193 158.473 127.047 158.521ZM131.193 173.181C125.437 180.315 107.875 209.78 106.509 219.26C106.412 219.846 106.314 220.042 106.314 220.091C104.412 219.358 98.2165 197.417 98.1677 181.194C100.46 176.943 102.607 173.963 104.412 172.545C115.437 163.799 125.388 159.987 127.095 159.352C129.144 161.795 130.608 166.535 131.193 173.181Z" fill="#4461AB"/>
<path d="M249.295 129.691C239.929 134.04 230.367 161.795 241.441 185.983C252.514 210.171 287.54 253.123 297.784 241.542C308.028 230.01 266.954 134.382 266.954 134.382C266.954 134.382 258.661 125.342 249.295 129.691Z" fill="#2893D0"/>
<path d="M267.246 134.089C267.149 133.992 258.661 124.903 249.1 129.301C239.733 133.649 229.636 161.258 241.051 186.13C250.563 206.848 277.735 241.64 291.979 243.79C292.418 243.839 292.906 243.888 293.296 243.888C295.247 243.888 296.808 243.204 298.028 241.835C308.321 230.206 268.954 138.145 267.246 134.236C267.295 134.138 267.295 134.138 267.246 134.089ZM297.491 241.249C296.174 242.715 294.418 243.252 292.174 242.959C278.369 240.907 251.051 205.871 241.88 185.788C231.099 162.186 240.27 134.334 249.49 130.033C251.246 129.252 252.905 128.91 254.563 128.91C261.002 128.91 266.076 133.992 266.612 134.578C267.881 137.656 307.297 230.157 297.491 241.249Z" fill="#2893D0"/>
<path d="M255.783 143.569C252.905 149.481 256.953 167.561 257.002 174.696C257.002 179.924 281.784 223.658 285.491 217.012C289.247 210.318 263.881 136.532 263.881 136.532C263.881 136.532 258.661 137.656 255.783 143.569Z" fill="#4461AB"/>
<path d="M263.783 136.141C263.539 136.19 258.319 137.363 255.393 143.422C253.392 147.478 254.563 156.811 255.636 165.02C256.124 168.832 256.563 172.448 256.563 174.744C256.563 179.777 277.149 216.328 283.832 218.087C284.028 218.136 284.223 218.185 284.369 218.185C285.003 218.185 285.491 217.892 285.832 217.256C289.637 210.513 265.295 139.464 264.271 136.435C264.222 136.19 264.027 136.093 263.783 136.141ZM285.15 216.817C284.906 217.257 284.564 217.354 284.076 217.256C277.832 215.644 257.441 179.435 257.441 174.744C257.441 172.35 256.953 168.734 256.514 164.923C255.539 157.251 254.319 147.673 256.222 143.813C258.563 139.024 262.466 137.461 263.685 137.119C272.417 162.626 288.028 211.686 285.15 216.817Z" fill="#4461AB"/>
<path d="M243.294 134.871C243.392 134.92 253.88 141.272 257.734 151.925L260.905 150.801C256.661 139.025 245.49 132.281 245.051 131.988L243.294 134.871Z" fill="#504566"/>
<path d="M316.321 245.158C336.859 239.001 340.468 219.895 337.932 204.014C335.395 188.133 319.541 110.439 301.345 120.993C283.15 131.499 264.417 137.265 264.417 137.265C257.198 140.49 255.685 150.556 257.88 159.45C260.076 168.294 273.052 201.864 277.735 209.096C282.418 216.328 280.613 236.509 280.613 236.509C280.613 236.509 295.784 251.266 316.321 245.158Z" fill="#2893D0"/>
<path d="M280.369 236.802C280.515 236.949 291.052 247.064 306.37 247.064C309.54 247.064 312.906 246.624 316.467 245.549C341.737 238.024 339.639 211.784 338.371 203.965C335.883 188.182 323.346 127.688 307.931 120.358C305.638 119.283 303.394 119.381 301.15 120.651C283.198 131.011 264.515 136.826 264.319 136.923H264.271C256.612 140.393 255.392 151.094 257.49 159.596C259.685 168.343 272.71 202.109 277.393 209.389C281.93 216.426 280.222 236.362 280.222 236.558C280.222 236.558 280.271 236.704 280.369 236.802ZM278.125 208.852C273.442 201.62 260.466 168.05 258.319 159.352C256.27 151.192 257.392 140.93 264.612 137.705C265.393 137.461 283.881 131.646 301.589 121.384C303.54 120.261 305.54 120.163 307.589 121.14C313.98 124.17 320.809 137.656 327.395 160.036C333.005 179.044 336.614 198.297 337.541 204.112C338.761 211.784 340.81 237.437 316.224 244.767C297.199 250.435 282.71 237.78 281.1 236.362C281.247 234.066 282.613 215.791 278.125 208.852Z" fill="#2893D0"/>
<path d="M172.219 233.137C174.374 233.137 176.122 231.387 176.122 229.228C176.122 227.069 174.374 225.319 172.219 225.319C170.064 225.319 168.316 227.069 168.316 229.228C168.316 231.387 170.064 233.137 172.219 233.137Z" fill="#E46790"/>
<path d="M167.877 229.228C167.877 231.623 169.829 233.577 172.219 233.577C174.609 233.577 176.561 231.623 176.561 229.228C176.561 226.834 174.609 224.879 172.219 224.879C169.829 224.879 167.877 226.834 167.877 229.228ZM175.731 229.228C175.731 231.183 174.17 232.746 172.219 232.746C170.268 232.746 168.707 231.183 168.707 229.228C168.707 227.274 170.268 225.71 172.219 225.71C174.17 225.71 175.731 227.323 175.731 229.228Z" fill="#E46790"/>
<path d="M177.341 196.44C179.496 196.44 181.244 194.69 181.244 192.531C181.244 190.372 179.496 188.622 177.341 188.622C175.186 188.622 173.438 190.372 173.438 192.531C173.438 194.69 175.186 196.44 177.341 196.44Z" fill="#E46790"/>
<path d="M173 192.531C173 194.925 174.951 196.88 177.341 196.88C179.731 196.88 181.683 194.925 181.683 192.531C181.683 190.137 179.731 188.182 177.341 188.182C174.951 188.182 173 190.137 173 192.531ZM180.805 192.531C180.805 194.486 179.244 196.049 177.292 196.049C175.341 196.049 173.78 194.486 173.78 192.531C173.78 190.577 175.341 189.013 177.292 189.013C179.244 189.013 180.805 190.577 180.805 192.531Z" fill="#E46790"/>
<path d="M176.999 155.932C176.902 158.082 178.56 159.938 180.707 160.085C182.853 160.232 184.707 158.521 184.853 156.371C184.951 154.221 183.292 152.365 181.146 152.218C178.95 152.12 177.097 153.782 176.999 155.932Z" fill="#E46790"/>
<path d="M176.56 155.932C176.414 158.326 178.268 160.378 180.658 160.525C180.756 160.525 180.804 160.525 180.902 160.525C183.195 160.525 185.097 158.717 185.244 156.42C185.39 154.026 183.536 151.974 181.146 151.827C178.707 151.729 176.707 153.537 176.56 155.932ZM183.487 153.83C184.122 154.514 184.414 155.443 184.365 156.371C184.317 157.3 183.926 158.179 183.195 158.766C182.512 159.401 181.585 159.743 180.658 159.645C179.731 159.596 178.853 159.205 178.268 158.472C177.682 157.739 177.341 156.86 177.39 155.932C177.438 155.003 177.829 154.124 178.56 153.537C179.195 152.951 180.024 152.658 180.902 152.658C180.951 152.658 181.048 152.658 181.097 152.658C182.024 152.706 182.902 153.146 183.487 153.83Z" fill="#E46790"/>
<path d="M102.948 111.269C97.4847 109.119 96.3627 111.269 95.2895 114.543C94.2163 117.768 90.8016 123.583 87.5332 127.004L129.291 151.192C129.291 151.192 137.437 140.93 136.901 137.656C136.364 134.334 108.461 113.42 102.948 111.269Z" fill="#504566"/>
<path d="M103.144 110.879C100.656 109.901 98.8996 109.706 97.6313 110.341C96.1678 111.025 95.4849 112.638 94.8995 114.397C93.8751 117.524 90.5579 123.192 87.2407 126.711C87.1431 126.808 87.0944 126.955 87.1432 127.053C87.1432 127.199 87.2407 127.297 87.3383 127.346L129.096 151.534C129.145 151.583 129.242 151.583 129.291 151.583C129.437 151.583 129.535 151.534 129.632 151.436C130.462 150.361 137.876 140.93 137.291 137.559C136.706 133.845 108.266 112.931 103.144 110.879ZM129.193 150.605L88.2163 126.857C91.436 123.29 94.6556 117.768 95.68 114.641C96.2166 113.029 96.7532 111.612 97.924 111.074C98.9972 110.585 100.558 110.781 102.802 111.66C108.119 113.762 135.974 134.676 136.462 137.656C136.901 140.1 131.584 147.576 129.193 150.605Z" fill="#504566"/>
<path d="M101.241 128.128C92.2165 124.414 85.826 121.775 80.7039 128.128C58.9471 155.247 28.8486 206.164 32.7999 227.469C36.7513 248.774 69.1913 256.348 85.7772 253.807C102.363 251.266 105.973 231.085 107.095 217.745C108.266 204.405 134.413 161.111 133.486 154.612C132.51 148.064 110.266 131.841 101.241 128.128Z" fill="#2893D0"/>
<path d="M101.387 127.737L101.29 127.688C92.2164 123.974 85.6796 121.287 80.3624 127.883C57.7275 156.078 28.4095 206.409 32.3608 227.567C35.9219 246.82 62.0691 254.687 79.2404 254.687C81.6307 254.687 83.8747 254.54 85.826 254.247C98.4605 252.341 105.534 240.369 107.485 217.794C108.071 210.758 115.876 194.974 122.754 181.097C128.949 168.539 134.315 157.691 133.876 154.563C132.901 147.722 110.461 131.499 101.387 127.737ZM122.022 180.706C115.144 194.681 107.29 210.513 106.656 217.696C104.753 239.881 97.8751 251.559 85.6796 253.416C69.9718 255.811 37.1902 248.823 33.1901 227.42C30.9461 215.4 39.7269 195.121 47.4345 180.217C56.5079 162.773 69.3376 142.934 80.9965 128.421C83.1429 125.733 85.4845 124.707 88.2163 124.707C91.7286 124.707 95.8263 126.417 100.9 128.47L100.997 128.519C110.656 132.477 132.071 148.553 132.949 154.612C133.437 157.544 127.876 168.783 122.022 180.706Z" fill="#2893D0"/>
<path d="M277.051 139.367C285.539 136.923 308.223 126.711 307.199 121.384C306.125 115.716 305.686 114.983 304.516 112.198C303.296 109.315 299.394 102.816 300.125 106.09C301.589 112.442 282.271 120.31 273.783 123.388C265.295 126.515 259.441 125.44 257.88 122.704C257.88 122.704 255.295 121.629 258.904 130.033C262.563 138.438 262.417 140.588 262.417 140.588C262.417 140.588 268.514 141.81 277.051 139.367Z" fill="#504566"/>
<path d="M262.368 141.028C262.514 141.077 264.027 141.37 266.563 141.37C269.149 141.37 272.856 141.077 277.149 139.806C281.295 138.634 289.052 135.506 295.881 131.841C301.54 128.812 308.223 124.512 307.638 121.287C306.711 116.205 306.223 115.081 305.296 112.882L304.906 112.002C304.857 111.905 301.54 104.771 300.125 104.771C300.077 104.771 300.028 104.771 300.028 104.771C299.442 104.966 299.637 105.748 299.735 106.188C301.199 112.442 280.125 120.651 273.637 122.997C265.49 125.978 259.734 125 258.27 122.508C258.222 122.411 258.173 122.362 258.075 122.313C257.831 122.215 257.343 122.166 256.953 122.508C256.417 123.046 256.026 124.414 258.563 130.18C262.075 138.243 262.027 140.539 262.027 140.539C262.027 140.784 262.173 140.979 262.368 141.028ZM257.539 123.144C257.587 123.095 257.587 123.095 257.636 123.095C259.344 125.733 265.1 127.004 273.929 123.779C284.466 119.918 301.833 112.54 300.564 106.09C301.491 107.311 303.296 110.341 304.125 112.296L304.516 113.175C305.443 115.325 305.882 116.4 306.808 121.433C307.199 123.486 303.052 127.004 295.491 131.06C288.71 134.676 281.003 137.754 276.905 138.927C269.685 140.979 264.173 140.393 262.807 140.197C262.71 139.269 262.173 136.435 259.295 129.838C256.904 124.267 257.392 123.29 257.539 123.144Z" fill="#504566"/>
<path d="M311.102 145.181C306.321 126.711 300.37 126.369 299.296 126.466L299.443 128.128V129.789C299.491 129.789 303.784 130.376 307.833 145.963L308.467 148.455C326.663 218.527 331.785 229.375 334.615 230.694L336.127 227.714C334.078 226.101 328.175 210.904 311.736 147.625L311.102 145.181Z" fill="#504566"/>
<path d="M113.583 169.272C130.266 146.256 120.656 135.799 120.266 135.36L117.827 137.705C117.924 137.803 125.778 146.794 110.9 167.317C95.3872 188.72 74.7036 236.509 78.5574 255.078L81.8745 254.393C80.2159 246.477 83.4844 231.329 90.8504 212.859C97.1921 196.636 106.168 179.533 113.583 169.272Z" fill="#504566"/>
</g>
<defs>
<filter id="filter0_dd_3_13871" x="0" y="0" width="371.038" height="313.967" filterUnits="userSpaceOnUse" color-interpolation-filters="sRGB">
<feFlood flood-opacity="0" result="BackgroundImageFix"/>
<feColorMatrix in="SourceAlpha" type="matrix" values="0 0 0 0 0 0 0 0 0 0 0 0 0 0 0 0 0 0 127 0" result="hardAlpha"/>
<feMorphology radius="8" operator="erode" in="SourceAlpha" result="effect1_dropShadow_3_13871"/>
<feOffset dy="20"/>
<feGaussianBlur stdDeviation="20"/>
<feColorMatrix type="matrix" values="0 0 0 0 0.0627451 0 0 0 0 0.0941176 0 0 0 0 0.156863 0 0 0 0.1 0"/>
<feBlend mode="normal" in2="BackgroundImageFix" result="effect1_dropShadow_3_13871"/>
<feColorMatrix in="SourceAlpha" type="matrix" values="0 0 0 0 0 0 0 0 0 0 0 0 0 0 0 0 0 0 127 0" result="hardAlpha"/>
<feMorphology radius="8" operator="erode" in="SourceAlpha" result="effect2_dropShadow_3_13871"/>
<feOffset dy="20"/>
<feGaussianBlur stdDeviation="20"/>
<feColorMatrix type="matrix" values="0 0 0 0 0.0627451 0 0 0 0 0.0941176 0 0 0 0 0.156863 0 0 0 0.05 0"/>
<feBlend mode="normal" in2="effect1_dropShadow_3_13871" result="effect2_dropShadow_3_13871"/>
<feBlend mode="normal" in="SourceGraphic" in2="effect2_dropShadow_3_13871" result="shape"/>
</filter>
</defs>
</svg>
